<?xml version="1.0" standalone="no"?>
<!DOCTYPE svg PUBLIC "-//W3C//DTD SVG 20010904//EN"
 "http://www.w3.org/TR/2001/REC-SVG-20010904/DTD/svg10.dtd">
<svg version="1.0" xmlns="http://www.w3.org/2000/svg"
 width="1920.000000pt" height="1080.000000pt" viewBox="0 0 1920.000000 1080.000000"
 preserveAspectRatio="xMidYMid meet">

<g transform="translate(0.000000,1080.000000) scale(0.100000,-0.100000)"
fill="#000000" stroke="none">
<path d="M0 5400 l0 -5400 3715 0 c3296 0 3715 2 3715 15 0 13 37 15 270 15
233 0 270 -2 270 -15 0 -13 52 -15 410 -15 358 0 410 2 410 15 0 13 37 15 270
15 233 0 270 -2 270 -15 0 -13 126 -15 1075 -15 949 0 1075 2 1075 15 0 13 36
15 265 15 229 0 265 -2 265 -15 0 -12 14 -15 70 -15 56 0 70 3 70 15 0 13 36
15 265 15 229 0 265 -2 265 -15 0 -12 14 -15 70 -15 56 0 70 3 70 15 0 13 36
15 265 15 229 0 265 -2 265 -15 0 -12 14 -15 70 -15 56 0 70 3 70 15 0 13 36
15 265 15 229 0 265 -2 265 -15 0 -11 11 -15 40 -15 29 0 40 4 40 15 0 13 43
15 325 15 282 0 325 -2 325 -15 0 -13 254 -15 2225 -15 l2225 0 0 5400 0 5400
-9600 0 -9600 0 0 -5400z m338 5187 l3 -108 -108 3 -108 3 -3 94 c-1 52 0 101
2 108 4 11 29 13 108 11 l103 -3 3 -108z m17882 18 c0 -42 -3 -55 -15 -55 -8
0 -15 -7 -15 -15 0 -12 -13 -15 -55 -15 l-55 0 0 55 c0 42 3 55 15 55 8 0 15
7 15 15 0 12 13 15 55 15 l55 0 0 -55z m678 26 l37 34 -34 -37 -35 -38 35 -37
34 -38 -37 34 -38 35 -37 -35 -38 -34 34 38 35 37 -35 38 -34 37 38 -34 37
-35 38 35z m-18208 -51 c0 -40 -4 -70 -10 -70 -6 0 -10 30 -10 70 0 40 4 70
10 70 6 0 10 -30 10 -70z m460 2 l0 -69 -32 -1 c-39 -1 -58 13 -58 43 0 29 24
49 50 42 17 -4 20 0 20 24 0 16 5 29 10 29 6 0 10 -29 10 -68z m2070 0 l0 -69
-32 -1 c-39 -1 -58 13 -58 43 0 29 24 49 50 42 17 -4 20 0 20 24 0 16 5 29 10
29 6 0 10 -29 10 -68z m543 61 c-7 -2 -13 -13 -13 -24 0 -10 6 -19 13 -20 10
0 10 -2 0 -6 -8 -2 -13 -22 -13 -44 0 -53 -18 -50 -22 4 -4 55 9 97 30 96 11
0 12 -2 5 -6z m1437 -63 c0 -40 -4 -70 -10 -70 -6 0 -10 30 -10 70 0 40 4 70
10 70 6 0 10 -30 10 -70z m1180 2 l0 -69 -32 -1 c-39 -1 -58 13 -58 43 0 29
24 49 50 42 17 -4 20 0 20 24 0 16 5 29 10 29 6 0 10 -29 10 -68z m700 -2 c0
-40 -4 -70 -10 -70 -6 0 -10 30 -10 70 0 40 4 70 10 70 6 0 10 -30 10 -70z
m-6492 53 c-22 -3 -28 -10 -28 -29 0 -19 5 -24 28 -25 l27 -2 -27 -4 c-22 -3
-28 -10 -31 -36 -2 -18 -5 -2 -5 36 l-2 67 33 -1 c30 -2 30 -2 5 -6z m62 -3
c0 -5 -4 -10 -10 -10 -5 0 -10 5 -10 10 0 6 5 10 10 10 6 0 10 -4 10 -10z
m368 3 c-22 -3 -28 -10 -28 -29 0 -19 5 -24 28 -25 l27 -2 -27 -4 c-22 -3 -28
-10 -28 -28 0 -18 6 -25 28 -28 25 -4 25 -4 -5 -6 l-33 -1 0 65 0 65 33 -1
c30 -2 30 -2 5 -6z m172 -3 c0 -5 -4 -10 -10 -10 -5 0 -10 5 -10 10 0 6 5 10
10 10 6 0 10 -4 10 -10z m305 -40 c9 -27 18 -50 20 -50 2 0 11 23 20 50 9 28
20 50 25 50 4 0 -1 -29 -13 -65 -12 -36 -25 -64 -30 -62 -13 4 -58 127 -47
127 4 0 16 -22 25 -50z m105 40 c0 -5 -4 -10 -10 -10 -5 0 -10 5 -10 10 0 6 5
10 10 10 6 0 10 -4 10 -10z m477 -42 l32 -53 1 53 c0 28 5 52 10 52 6 0 10
-28 10 -65 0 -81 -14 -84 -55 -12 l-30 52 -6 -55 -6 -55 -1 68 c-1 37 1 67 6
67 4 0 22 -24 39 -52z m273 42 c0 -5 -4 -10 -10 -10 -5 0 -10 5 -10 10 0 6 5
10 10 10 6 0 10 -4 10 -10z m650 2 c0 -4 -12 -8 -27 -7 -40 0 -61 -46 -38 -82
12 -18 23 -24 41 -20 13 2 24 0 24 -4 0 -15 -53 -10 -72 8 -40 36 -8 113 47
113 14 0 25 -4 25 -8z m600 -12 c8 -14 7 -22 -4 -32 -12 -11 -11 -18 6 -45 11
-18 15 -33 9 -33 -6 0 -17 14 -26 30 -21 40 -43 39 -48 -2 -2 -18 -5 -3 -5 35
l-2 67 30 0 c19 0 33 -7 40 -20z m860 0 c8 -14 7 -22 -4 -32 -12 -11 -11 -18
6 -45 11 -18 15 -33 9 -33 -6 0 -17 14 -26 30 -21 40 -43 39 -48 -2 -2 -18 -5
-3 -5 35 l-2 67 30 0 c19 0 33 -7 40 -20z m473 13 c-21 -4 -23 -11 -25 -66
l-2 -62 -3 62 c-3 54 -7 62 -26 66 -12 2 1 4 28 4 28 0 40 -2 28 -4z m582 -43
c9 -27 18 -50 20 -50 2 0 11 23 20 50 9 28 20 50 25 50 4 0 -1 -29 -13 -65
-12 -36 -25 -64 -30 -62 -13 4 -58 127 -47 127 4 0 16 -22 25 -50z m175 42 c0
-4 -12 -8 -27 -7 -40 0 -61 -46 -38 -82 12 -18 23 -24 41 -20 13 2 24 0 24 -4
0 -15 -53 -10 -72 8 -40 36 -8 113 47 113 14 0 25 -4 25 -8z m100 0 c0 -4 -12
-8 -27 -7 -38 0 -40 -26 -3 -47 32 -18 40 -52 14 -62 -23 -9 -64 -7 -64 2 0 5
13 7 29 4 45 -6 49 24 6 49 -37 22 -43 37 -23 57 13 13 68 17 68 4z m211 -37
c6 -25 14 -45 18 -45 4 0 12 20 19 45 15 55 28 58 37 7 11 -65 21 -69 35 -13
6 28 16 51 20 51 12 0 -23 -123 -35 -127 -6 -2 -17 18 -24 44 l-14 48 -15 -47
c-9 -27 -19 -48 -23 -48 -5 0 -16 26 -25 58 -9 31 -18 60 -21 65 -2 4 1 7 6 7
6 0 16 -20 22 -45z m169 35 c0 -5 -4 -10 -10 -10 -5 0 -10 5 -10 10 0 6 5 10
10 10 6 0 10 -4 10 -10z m725 -50 c31 0 34 3 38 33 2 17 4 1 4 -38 0 -38 -2
-55 -4 -37 -4 29 -7 32 -38 32 -31 0 -34 -3 -38 -32 -2 -18 -4 -1 -4 37 0 39
2 55 4 38 4 -30 7 -33 38 -33z m-5647 19 c15 -1 15 -2 0 -6 -12 -3 -18 -14
-18 -33 0 -17 7 -34 18 -40 15 -10 15 -10 -3 -8 -15 2 -21 12 -23 38 -2 19 -9
38 -15 42 -9 6 -9 8 1 8 6 0 13 8 13 18 1 16 2 16 6 0 2 -10 12 -19 21 -19z
m1360 0 c15 -1 15 -2 0 -6 -12 -3 -18 -14 -18 -33 0 -17 7 -34 18 -40 15 -10
15 -10 -3 -8 -15 2 -21 12 -23 38 -2 19 -9 38 -15 42 -9 6 -9 8 1 8 6 0 13 8
13 18 1 16 2 16 6 0 2 -10 12 -19 21 -19z m1380 0 c15 -1 15 -2 0 -6 -12 -3
-18 -14 -18 -33 0 -17 7 -34 18 -40 15 -10 15 -10 -3 -8 -15 2 -21 12 -23 40
-3 34 -5 36 -34 35 -39 -2 -58 -28 -38 -52 7 -9 22 -14 32 -12 10 3 16 1 12
-4 -8 -13 -38 -11 -52 3 -15 15 -15 51 0 66 7 7 27 12 45 12 24 0 33 5 34 18
1 16 2 16 6 0 2 -10 12 -19 21 -19z m-3338 -44 c0 -25 -4 -45 -10 -45 -5 0
-10 20 -10 45 0 25 5 45 10 45 6 0 10 -20 10 -45z m128 18 c3 -20 -1 -23 -27
-23 -24 0 -29 -4 -24 -16 4 -10 14 -14 29 -11 13 2 21 0 18 -4 -8 -13 -38 -11
-52 3 -16 16 -15 51 0 66 20 20 53 10 56 -15z m412 -18 c0 -25 -4 -45 -10 -45
-5 0 -10 20 -10 45 0 25 5 45 10 45 6 0 10 -20 10 -45z m410 0 c0 -25 -4 -45
-10 -45 -5 0 -10 20 -10 45 0 25 5 45 10 45 6 0 10 -20 10 -45z m88 18 c3 -20
-1 -23 -27 -23 -24 0 -29 -4 -24 -16 4 -10 14 -14 29 -11 13 2 21 0 18 -4 -8
-13 -38 -11 -52 3 -16 16 -15 51 0 66 20 20 53 10 56 -15z m41 -5 l9 -33 12
33 c13 35 30 43 30 15 0 -10 5 -25 10 -33 7 -12 11 -8 16 18 4 17 10 32 14 32
10 0 -8 -71 -20 -84 -5 -5 -15 6 -23 25 l-14 34 -7 -32 c-10 -45 -21 -41 -39
12 -9 25 -12 45 -7 45 5 0 14 -15 19 -32z m489 -16 l3 -43 -33 3 c-25 2 -34 8
-36 25 -3 17 3 24 22 29 14 3 26 11 26 16 0 6 -9 8 -20 5 -11 -3 -20 -1 -20 5
0 5 12 8 28 6 24 -3 27 -7 30 -46z m44 11 l14 -38 14 38 c8 20 18 37 22 37 4
0 3 -12 -2 -26 -18 -46 -32 -66 -40 -58 -14 15 -39 84 -31 84 5 0 15 -17 23
-37z m88 -8 c0 -25 -4 -45 -10 -45 -5 0 -10 20 -10 45 0 25 5 45 10 45 6 0 10
-20 10 -45z m108 -13 c-3 -31 -11 -58 -19 -63 -17 -11 -59 -12 -59 -1 0 4 12
8 27 7 18 0 29 6 31 17 2 12 -2 15 -17 11 -27 -7 -51 13 -51 41 0 32 18 45 58
44 l34 -1 -4 -55z m90 10 l3 -43 -33 3 c-25 2 -34 8 -36 25 -3 17 3 24 22 29
14 3 26 11 26 16 0 6 -9 8 -20 5 -11 -3 -20 -1 -20 5 0 5 12 8 28 6 24 -3 27
-7 30 -46z m150 21 c3 -20 -1 -23 -27 -23 -24 0 -29 -4 -24 -16 4 -10 14 -14
29 -11 13 2 21 0 18 -4 -8 -13 -38 -11 -52 3 -16 16 -15 51 0 66 20 20 53 10
56 -15z m400 15 c28 -28 7 -78 -33 -78 -27 0 -45 18 -45 45 0 27 18 45 45 45
12 0 26 -5 33 -12z m210 -15 c3 -20 -1 -23 -27 -23 -24 0 -29 -4 -24 -16 4
-10 14 -14 29 -11 13 2 21 0 18 -4 -8 -13 -38 -11 -52 3 -16 16 -15 51 0 66
20 20 53 10 56 -15z m390 0 c3 -20 -1 -23 -27 -23 -24 0 -29 -4 -24 -16 4 -10
14 -14 29 -11 13 2 21 0 18 -4 -8 -13 -38 -11 -52 3 -16 16 -15 51 0 66 20 20
53 10 56 -15z m150 -21 l3 -43 -33 3 c-25 2 -34 8 -36 25 -3 17 3 24 22 29 14
3 26 11 26 16 0 6 -9 8 -20 5 -11 -3 -20 -1 -20 5 0 5 12 8 28 6 24 -3 27 -7
30 -46z m240 36 c28 -28 7 -78 -33 -78 -27 0 -45 18 -45 45 0 27 18 45 45 45
12 0 26 -5 33 -12z m69 0 c-11 -6 -17 -22 -17 -43 0 -19 -4 -35 -10 -35 -5 0
-10 20 -10 44 0 40 2 44 27 44 21 0 23 -2 10 -10z m353 -29 c0 -33 3 -40 18
-37 12 2 18 14 20 41 4 52 22 47 22 -7 0 -41 -2 -44 -27 -44 -16 0 -34 5 -40
10 -15 12 -17 78 -3 78 6 0 10 -18 10 -41z m152 28 c11 -18 10 -77 -2 -77 -5
0 -10 18 -10 41 0 33 -3 40 -17 37 -13 -2 -19 -14 -21 -41 -4 -52 -22 -47 -22
6 0 43 1 44 32 45 18 0 36 -5 40 -11z m376 1 c28 -28 7 -78 -33 -78 -27 0 -45
18 -45 45 0 27 18 45 45 45 12 0 26 -5 33 -12z m110 0 c28 -28 7 -78 -33 -78
-27 0 -45 18 -45 45 0 27 18 45 45 45 12 0 26 -5 33 -12z m132 3 c0 -5 -8 -7
-19 -4 -30 8 -35 -16 -6 -27 35 -13 30 -44 -8 -48 -15 -2 -27 1 -27 6 0 6 8 8
19 5 30 -8 35 16 7 27 -25 9 -34 29 -19 43 10 10 53 8 53 -2z m890 -36 c0 -25
-4 -45 -10 -45 -5 0 -10 20 -10 45 0 25 5 45 10 45 6 0 10 -20 10 -45z m92 32
c11 -18 10 -77 -2 -77 -5 0 -10 18 -10 41 0 33 -3 40 -17 37 -13 -2 -19 -14
-21 -41 -4 -52 -22 -47 -22 6 0 43 1 44 32 45 18 0 36 -5 40 -11z m216 1 c28
-28 7 -78 -33 -78 -27 0 -45 18 -45 45 0 27 18 45 45 45 12 0 26 -5 33 -12z
m51 -20 l9 -33 12 33 c13 35 30 43 30 15 0 -10 5 -25 10 -33 7 -12 11 -8 16
18 4 17 10 32 14 32 10 0 -8 -71 -20 -84 -5 -5 -15 6 -23 25 l-14 34 -7 -32
c-10 -45 -21 -41 -39 12 -9 25 -12 45 -7 45 5 0 14 -15 19 -32z m509 5 c3 -20
-1 -23 -27 -23 -24 0 -29 -4 -24 -16 4 -10 14 -14 29 -11 13 2 21 0 18 -4 -8
-13 -38 -11 -52 3 -16 16 -15 51 0 66 20 20 53 10 56 -15z m138 16 c33 -27 5
-87 -35 -76 -15 4 -21 -1 -24 -22 -2 -14 -5 3 -6 39 -1 64 0 66 25 68 15 1 33
-3 40 -9z m10312 -6 c-21 -2 -55 -2 -75 0 -21 2 -4 4 37 4 41 0 58 -2 38 -4z
m-16895 -90 c-13 -2 -35 -2 -50 0 -16 2 -5 4 22 4 28 0 40 -2 28 -4z m440 0
c-13 -2 -35 -2 -50 0 -16 2 -5 4 22 4 28 0 40 -2 28 -4z m505 0 c-15 -2 -42
-2 -60 0 -18 2 -6 4 27 4 33 0 48 -2 33 -4z m569 0 c-20 -2 -52 -2 -70 0 -17
2 0 4 38 4 39 0 53 -2 32 -4z m871 0 c-15 -2 -42 -2 -60 0 -18 2 -6 4 27 4 33
0 48 -2 33 -4z m610 0 c-16 -2 -40 -2 -55 0 -16 2 -3 4 27 4 30 0 43 -2 28 -4z
m960 0 c-16 -2 -40 -2 -55 0 -16 2 -3 4 27 4 30 0 43 -2 28 -4z m385 0 c-13
-2 -35 -2 -50 0 -16 2 -5 4 22 4 28 0 40 -2 28 -4z m845 0 c-16 -2 -40 -2 -55
0 -16 2 -3 4 27 4 30 0 43 -2 28 -4z m315 0 c-24 -2 -62 -2 -85 0 -24 2 -5 4
42 4 47 0 66 -2 43 -4z m835 0 c-21 -2 -55 -2 -75 0 -21 2 -4 4 37 4 41 0 58
-2 38 -4z m-5928 -253 c0 -5 -16 -10 -35 -10 -19 0 -35 5 -35 10 0 6 16 10 35
10 19 0 35 -4 35 -10z m16398 -71 c-31 -26 -33 -26 -36 -8 -3 14 -11 19 -36
19 -38 0 -56 -15 -56 -49 0 -27 26 -61 47 -61 7 0 13 -4 13 -10 0 -14 -32 -12
-52 4 -60 45 -34 130 44 142 29 5 38 11 38 26 0 17 3 16 36 -8 l36 -28 -34
-27z m344 67 c21 18 21 18 15 0 -9 -23 9 -46 34 -46 11 0 19 -4 19 -10 0 -5
-7 -10 -15 -10 -8 0 -15 -7 -15 -15 0 -8 7 -15 15 -15 8 0 15 -4 15 -10 0 -5
-7 -10 -15 -10 -8 0 -15 -7 -15 -15 0 -8 7 -15 15 -15 8 0 15 -4 15 -10 0 -5
-9 -10 -20 -10 -11 0 -29 -5 -40 -12 -15 -10 -26 -10 -53 0 -18 7 -41 12 -50
12 -9 0 -17 5 -17 10 0 6 7 10 15 10 8 0 15 7 15 15 0 8 -7 15 -15 15 -8 0
-15 5 -15 10 0 6 7 10 15 10 8 0 15 7 15 15 0 8 -7 15 -15 15 -8 0 -15 5 -15
10 0 6 8 10 19 10 25 0 43 23 34 46 -6 18 -6 18 15 0 22 -19 22 -19 44 0z
m1273 8 c26 -10 47 -62 40 -96 -6 -24 -2 -35 21 -59 24 -25 25 -29 10 -35 -11
-4 -27 2 -44 19 -21 20 -31 24 -45 15 -45 -25 -107 21 -107 79 0 64 60 101
125 77z m-3885 -42 c0 -4 -12 -8 -27 -7 -40 0 -61 -46 -38 -82 12 -18 23 -24
41 -20 13 2 24 0 24 -4 0 -15 -53 -10 -72 8 -40 36 -8 113 47 113 14 0 25 -4
25 -8z m420 0 c0 -4 -12 -8 -27 -7 -38 0 -40 -26 -3 -47 32 -18 40 -52 14 -62
-23 -9 -64 -7 -64 2 0 5 13 7 29 4 45 -6 49 24 6 49 -37 22 -43 37 -23 57 13
13 68 17 68 4z m688 -20 c4 -28 -14 -52 -39 -52 -12 0 -19 -9 -22 -27 -2 -16
-5 3 -6 40 l-1 68 33 -3 c25 -2 33 -8 35 -26z m212 18 c0 -5 -4 -10 -10 -10
-5 0 -10 5 -10 10 0 6 5 10 10 10 6 0 10 -4 10 -10z m-7810 -4800 l0 -4800
-4065 0 -4065 0 0 4800 0 4800 4065 0 4065 0 0 -4800z m8038 4769 c15 -1 15
-2 0 -6 -12 -3 -18 -14 -18 -33 0 -17 7 -34 18 -40 15 -10 15 -10 -3 -8 -15 2
-21 12 -23 40 -3 34 -5 36 -34 35 -39 -2 -58 -28 -38 -52 7 -9 22 -14 32 -12
10 3 16 1 12 -4 -8 -13 -38 -11 -52 3 -7 7 -12 21 -12 33 0 30 19 45 57 45 24
0 33 5 34 18 1 16 2 16 6 0 2 -10 12 -19 21 -19z m226 -24 c-14 -19 -28 -35
-29 -35 -1 0 -15 16 -29 35 l-27 35 56 0 56 0 -27 -35z m-16636 13 c15 -15 15
-51 0 -66 -28 -28 -78 -7 -78 33 0 27 18 45 45 45 12 0 26 -5 33 -12z m120
-30 c3 -29 -1 -38 -17 -43 -12 -3 -25 -3 -31 0 -6 4 -10 -5 -10 -19 0 -16 -6
-26 -15 -26 -12 0 -15 14 -15 64 l0 65 43 -2 c41 -2 42 -3 45 -39z m86 36 c9
-3 16 -15 16 -25 0 -15 -7 -19 -31 -19 -17 0 -28 -4 -24 -10 3 -5 17 -10 31
-10 14 0 22 -4 19 -10 -9 -14 -48 -13 -63 2 -15 15 -15 51 0 66 13 13 28 15
52 6z m14744 -42 l3 -43 -33 3 c-25 2 -34 8 -36 25 -3 17 3 24 22 29 14 3 26
11 26 16 0 6 -9 8 -20 5 -11 -3 -20 -1 -20 5 0 5 12 8 28 6 24 -3 27 -7 30
-46z m159 -2 l1 -45 -7 38 c-9 44 -15 51 -36 44 -9 -4 -15 -20 -16 -44 -1 -21
-3 -29 -6 -18 -2 11 -6 30 -9 43 -8 39 -38 23 -45 -23 l-6 -40 -2 46 -1 46 63
-1 62 -1 2 -45z m263 41 c0 -5 -8 -7 -18 -4 -10 2 -25 -3 -32 -12 -18 -21 -1
-50 28 -49 12 0 19 -3 16 -8 -8 -12 -38 -10 -52 4 -29 29 -7 78 35 78 13 0 23
-4 23 -9z m78 -39 l3 -43 -33 3 c-25 2 -34 8 -36 25 -3 17 3 24 22 29 14 3 26
11 26 16 0 6 -9 8 -20 5 -11 -3 -20 -1 -20 5 0 5 12 8 28 6 24 -3 27 -7 30
-46z m94 35 c11 -18 10 -77 -2 -77 -5 0 -10 18 -10 41 0 33 -3 40 -17 37 -13
-2 -19 -14 -21 -41 -4 -52 -22 -47 -22 6 0 43 1 44 32 45 18 0 36 -5 40 -11z
m100 0 c11 -18 10 -77 -2 -77 -5 0 -10 18 -10 41 0 33 -3 40 -17 37 -13 -2
-19 -14 -21 -41 -4 -52 -22 -47 -22 6 0 43 1 44 32 45 18 0 36 -5 40 -11z m96
-14 c3 -20 -1 -23 -27 -23 -24 0 -29 -4 -24 -16 4 -10 14 -14 29 -11 13 2 21
0 18 -4 -8 -13 -38 -11 -52 3 -16 16 -15 51 0 66 20 20 53 10 56 -15z m59 15
c-11 -6 -17 -22 -17 -43 0 -19 -4 -35 -10 -35 -5 0 -10 20 -10 44 0 40 2 44
27 44 21 0 23 -2 10 -10z m230 0 c-11 -6 -17 -22 -17 -43 0 -19 -4 -35 -10
-35 -5 0 -10 20 -10 44 0 40 2 44 27 44 21 0 23 -2 10 -10z m101 0 c28 -28 7
-78 -33 -78 -27 0 -45 18 -45 45 0 27 18 45 45 45 12 0 26 -5 33 -12z m52 -42
c0 -55 -16 -83 -42 -73 -8 4 -7 6 5 6 14 1 17 11 17 61 0 33 4 60 10 60 6 0
10 -24 10 -54z m88 27 c3 -20 -1 -23 -27 -23 -24 0 -29 -4 -24 -16 4 -10 14
-14 29 -11 13 2 21 0 18 -4 -8 -13 -38 -11 -52 3 -16 16 -15 51 0 66 20 20 53
10 56 -15z m882 -64 l0 -40 -37 3 c-36 3 -38 5 -41 41 l-3 37 40 0 41 0 0 -41z
m-2457 -1 c6 -19 -3 -38 -18 -38 -18 0 -28 17 -21 35 7 18 33 20 39 3z m490
-25 c-13 -2 -33 -2 -45 0 -13 2 -3 4 22 4 25 0 35 -2 23 -4z m690 0 c-13 -2
-33 -2 -45 0 -13 2 -3 4 22 4 25 0 35 -2 23 -4z m-6753 -258 c0 -29 -4 -35
-22 -35 -26 0 -78 -56 -78 -85 0 -11 5 -26 12 -33 9 -9 5 -12 -20 -12 l-32 0
0 65 0 65 35 0 c33 0 35 2 35 35 0 33 2 35 35 35 33 0 35 -2 35 -35z m3210 0
c0 -29 -4 -35 -22 -35 -26 0 -78 -56 -78 -85 0 -11 5 -26 12 -33 9 -9 5 -12
-20 -12 l-32 0 0 65 0 65 35 0 c33 0 35 2 35 35 0 33 2 35 35 35 33 0 35 -2
35 -35z m1540 0 c0 -31 -3 -35 -25 -35 -15 0 -28 -7 -32 -17 -4 -10 -15 -24
-25 -31 -23 -17 -23 -58 0 -71 14 -8 10 -10 -20 -11 l-38 0 0 65 0 65 35 0
c33 0 35 2 35 35 0 33 2 35 35 35 33 0 35 -2 35 -35z m2660 0 c0 -29 -4 -35
-22 -35 -26 0 -78 -56 -78 -85 0 -11 5 -26 12 -33 9 -9 5 -12 -20 -12 l-32 0
0 65 0 65 35 0 c33 0 35 2 35 35 0 33 2 35 35 35 33 0 35 -2 35 -35z m-16323
-117 c-2 -29 -3 -8 -3 47 0 55 1 79 3 53 2 -26 2 -71 0 -100z m8823 122 c0
-14 -7 -20 -22 -20 -20 0 -21 1 -3 20 10 11 20 20 22 20 1 0 3 -9 3 -20z
m3210 0 c0 -14 -7 -20 -22 -20 -20 0 -21 1 -3 20 10 11 20 20 22 20 1 0 3 -9
3 -20z m1540 0 c0 -14 -7 -20 -22 -20 -20 0 -21 1 -3 20 10 11 20 20 22 20 1
0 3 -9 3 -20z m2660 0 c0 -14 -7 -20 -22 -20 -20 0 -21 1 -3 20 10 11 20 20
22 20 1 0 3 -9 3 -20z m-16516 -20 c12 0 27 5 34 12 9 9 12 8 12 -4 0 -11 -12
-17 -39 -20 -51 -5 -64 0 -48 17 7 7 14 9 15 4 2 -5 14 -9 26 -9z m9967 -33
c25 7 49 -14 49 -42 0 -29 -20 -46 -54 -43 -26 2 -26 3 -24 73 0 38 3 56 5 39
3 -26 8 -31 24 -27z m1319 -17 c0 -40 -4 -70 -10 -70 -6 0 -10 30 -10 70 0 40
4 70 10 70 6 0 10 -30 10 -70z m1283 63 c-7 -2 -13 -13 -13 -24 0 -10 6 -19
13 -20 10 0 10 -2 0 -6 -8 -2 -13 -22 -13 -44 0 -53 -18 -50 -22 4 -4 55 9 97
30 96 11 0 12 -2 5 -6z m127 -63 c0 -40 -4 -70 -10 -70 -6 0 -10 30 -10 70 0
40 4 70 10 70 6 0 10 -30 10 -70z m4380 2 l0 -69 -32 -1 c-39 -1 -58 13 -58
43 0 29 24 49 50 42 17 -4 20 0 20 24 0 16 5 29 10 29 6 0 10 -29 10 -68z
m188 -4 c7 12 20 22 28 22 12 0 10 -5 -7 -19 l-24 -19 24 -26 c14 -14 20 -26
14 -26 -5 0 -18 9 -29 21 l-19 21 -6 -24 c-4 -12 -7 11 -6 52 0 67 1 69 6 25
6 -47 7 -49 19 -27z m-7638 52 c0 -5 -4 -10 -10 -10 -5 0 -10 5 -10 10 0 6 5
10 10 10 6 0 10 -4 10 -10z m4530 2 c0 -4 -12 -8 -27 -7 -40 0 -61 -46 -38
-82 12 -18 23 -24 41 -20 13 2 24 0 24 -4 0 -15 -53 -10 -72 8 -22 20 -23 70
-1 95 16 18 73 26 73 10z m420 0 c0 -4 -12 -8 -27 -7 -38 0 -40 -26 -3 -47 32
-18 40 -52 14 -62 -23 -9 -64 -7 -64 2 0 5 14 7 30 4 25 -3 30 -1 30 15 0 11
-11 25 -25 31 -31 14 -41 37 -25 57 13 15 70 21 70 7z m688 -20 c4 -28 -14
-52 -39 -52 -12 0 -19 -9 -22 -27 -2 -16 -5 3 -6 40 l-1 68 33 -3 c25 -2 33
-8 35 -26z m212 18 c0 -5 -4 -10 -10 -10 -5 0 -10 5 -10 10 0 6 5 10 10 10 6
0 10 -4 10 -10z m1340 2 c0 -4 -12 -8 -27 -7 -40 0 -61 -46 -38 -82 12 -18 23
-24 41 -20 13 2 24 0 24 -4 0 -15 -53 -10 -72 8 -40 36 -8 113 47 113 14 0 25
-4 25 -8z m520 -2 c0 -5 -4 -10 -10 -10 -5 0 -10 5 -10 10 0 6 5 10 10 10 6 0
10 -4 10 -10z m480 0 c0 -5 -4 -10 -10 -10 -5 0 -10 5 -10 10 0 6 5 10 10 10
6 0 10 -4 10 -10z m-8462 -31 c15 -1 15 -2 0 -6 -12 -3 -18 -14 -18 -33 0 -17
7 -34 18 -40 15 -10 15 -10 -3 -8 -15 2 -21 12 -23 38 -2 19 -9 38 -15 42 -9
6 -9 8 1 8 6 0 13 8 13 18 1 16 2 16 6 0 2 -10 12 -19 21 -19z m230 0 c15 -1
15 -2 0 -6 -12 -3 -18 -14 -18 -33 0 -17 7 -34 18 -40 15 -10 15 -10 -3 -8
-15 2 -21 12 -23 38 -2 19 -9 38 -15 42 -9 6 -9 8 1 8 6 0 13 8 13 18 1 16 2
16 6 0 2 -10 12 -19 21 -19z m810 0 c15 -1 15 -2 0 -6 -12 -3 -18 -14 -18 -33
0 -17 7 -34 18 -40 15 -10 15 -10 -3 -8 -15 2 -21 12 -23 38 -2 19 -9 38 -15
42 -9 6 -9 8 1 8 6 0 13 8 13 18 1 16 2 16 6 0 2 -10 12 -19 21 -19z m2360 0
c15 -1 15 -2 0 -6 -12 -3 -18 -14 -18 -33 0 -17 7 -34 18 -40 15 -10 15 -10
-3 -8 -15 2 -21 12 -23 38 -2 19 -9 38 -15 42 -9 6 -9 8 1 8 6 0 13 8 13 18 1
16 2 16 6 0 2 -10 12 -19 21 -19z m2950 0 c15 -1 15 -2 0 -6 -12 -3 -18 -14
-18 -33 0 -17 7 -34 18 -40 15 -10 15 -10 -3 -8 -15 2 -21 12 -23 40 -3 34 -5
36 -34 35 -39 -2 -58 -28 -38 -52 7 -9 22 -14 32 -12 10 3 16 1 12 -4 -8 -13
-38 -11 -52 3 -7 7 -12 21 -12 33 0 30 19 45 57 45 24 0 33 5 34 18 1 16 2 16
6 0 2 -10 12 -19 21 -19z m3084 -6 l28 -27 30 29 c44 42 51 21 7 -22 l-37 -37
-35 34 c-33 32 -43 50 -28 50 4 0 20 -12 35 -27z m-10273 -40 c6 16 11 33 11
38 0 5 4 9 9 9 6 0 0 -24 -11 -52 -24 -59 -36 -78 -50 -78 -5 0 -2 7 6 16 19
19 19 17 1 61 -21 50 -17 66 5 18 l18 -40 11 28z m929 20 c3 -20 -1 -23 -27
-23 -24 0 -29 -4 -24 -16 4 -10 14 -14 29 -11 13 2 21 0 18 -4 -8 -13 -38 -11
-52 3 -16 16 -15 51 0 66 20 20 53 10 56 -15z m82 18 c0 -5 -8 -7 -19 -4 -30
8 -35 -16 -6 -27 35 -13 30 -44 -8 -48 -15 -2 -27 1 -27 6 0 6 8 8 19 5 30 -8
35 16 7 27 -25 9 -34 29 -19 43 10 10 53 8 53 -2z m100 -36 c0 -25 -4 -45 -10
-45 -5 0 -10 20 -10 45 0 25 5 45 10 45 6 0 10 -20 10 -45z m92 32 c11 -18 10
-77 -2 -77 -5 0 -10 18 -10 41 0 33 -3 40 -17 37 -13 -2 -19 -14 -21 -41 -4
-52 -22 -47 -22 6 0 43 1 44 32 45 18 0 36 -5 40 -11z m116 -45 c-3 -31 -11
-58 -19 -63 -17 -11 -59 -12 -59 -1 0 4 12 8 27 7 18 0 29 6 31 17 2 12 -2 15
-17 11 -27 -7 -51 13 -51 41 0 32 18 45 58 44 l34 -1 -4 -55z m239 46 c-11 -6
-17 -22 -17 -43 0 -19 -4 -35 -10 -35 -5 0 -10 20 -10 44 0 40 2 44 27 44 21
0 23 -2 10 -10z m91 -15 c3 -20 -1 -23 -27 -23 -24 0 -29 -4 -24 -16 4 -10 14
-14 29 -11 13 2 21 0 18 -4 -8 -13 -38 -11 -52 3 -16 16 -15 51 0 66 20 20 53
10 56 -15z m90 -21 l3 -43 -33 3 c-25 2 -34 8 -36 25 -3 17 3 24 22 29 14 3
26 11 26 16 0 6 -9 8 -20 5 -11 -3 -20 -1 -20 5 0 5 12 8 28 6 24 -3 27 -7 30
-46z m82 39 c0 -5 -8 -7 -19 -4 -30 8 -35 -16 -6 -27 35 -13 30 -44 -8 -48
-15 -2 -27 1 -27 6 0 6 8 8 19 5 30 -8 35 16 7 27 -25 9 -34 29 -19 43 10 10
53 8 53 -2z m228 -3 c28 -28 7 -78 -33 -78 -27 0 -45 18 -45 45 0 27 18 45 45
45 12 0 26 -5 33 -12z m104 -1 c11 -18 10 -77 -2 -77 -5 0 -10 18 -10 41 0 33
-3 40 -17 37 -13 -2 -19 -14 -21 -41 -4 -52 -22 -47 -22 6 0 43 1 44 32 45 18
0 36 -5 40 -11z m176 1 c28 -28 7 -78 -33 -78 -27 0 -45 18 -45 45 0 27 18 45
45 45 12 0 26 -5 33 -12z m51 -20 l9 -33 12 33 c13 35 30 43 30 15 0 -10 5
-25 10 -33 7 -12 11 -8 16 18 4 17 10 32 14 32 10 0 -8 -71 -20 -84 -5 -5 -15
6 -23 25 l-14 34 -7 -32 c-10 -45 -21 -41 -39 12 -9 25 -12 45 -7 45 5 0 14
-15 19 -32z m183 19 c11 -18 10 -77 -2 -77 -5 0 -10 18 -10 41 0 33 -3 40 -17
37 -13 -2 -19 -14 -21 -41 -4 -52 -22 -47 -22 6 0 43 1 44 32 45 18 0 36 -5
40 -11z m166 -35 l3 -43 -33 3 c-25 2 -34 8 -36 25 -3 17 3 24 22 29 14 3 26
11 26 16 0 6 -9 8 -20 5 -11 -3 -20 -1 -20 5 0 5 12 8 28 6 24 -3 27 -7 30
-46z m150 -10 c-3 -31 -11 -58 -19 -63 -17 -11 -59 -12 -59 -1 0 4 12 8 27 7
18 0 29 6 31 17 2 12 -2 15 -17 11 -27 -7 -51 13 -51 41 0 32 18 45 58 44 l34
-1 -4 -55z m100 46 c28 -28 7 -78 -33 -78 -27 0 -45 18 -45 45 0 27 18 45 45
45 12 0 26 -5 33 -12z m148 1 c33 -27 5 -87 -35 -76 -15 4 -21 -1 -24 -22 -2
-14 -5 3 -6 39 -1 64 0 66 25 68 15 1 33 -3 40 -9z m56 -26 l14 -38 14 38 c8
20 18 37 22 37 9 0 -28 -98 -44 -117 -6 -7 -15 -13 -20 -13 -5 0 -2 7 6 16 20
19 20 13 -4 68 -10 25 -16 46 -11 46 5 0 15 -17 23 -37z m956 -11 l3 -43 -33
3 c-25 2 -34 8 -36 25 -3 17 3 24 22 29 14 3 26 11 26 16 0 6 -9 8 -20 5 -11
-3 -20 -1 -20 5 0 5 12 8 28 6 24 -3 27 -7 30 -46z m142 7 c0 -33 3 -40 18
-37 12 2 18 14 20 41 4 52 22 47 22 -7 0 -41 -2 -44 -27 -44 -16 0 -34 5 -40
10 -15 12 -17 78 -3 78 6 0 10 -18 10 -41z m100 0 c0 -33 3 -40 18 -37 12 2
18 14 20 41 4 52 22 47 22 -7 0 -41 -2 -44 -27 -44 -16 0 -34 5 -40 10 -15 12
-17 78 -3 78 6 0 10 -18 10 -41z m100 0 c0 -33 3 -40 18 -37 12 2 18 14 20 41
4 52 22 47 22 -7 0 -41 -2 -44 -27 -44 -16 0 -34 5 -40 10 -15 12 -17 78 -3
78 6 0 10 -18 10 -41z m196 30 c33 -27 5 -87 -35 -76 -15 4 -21 -1 -24 -22 -2
-14 -5 3 -6 39 -1 64 0 66 25 68 15 1 33 -3 40 -9z m56 -26 l14 -38 14 38 c8
20 18 37 22 37 9 0 -28 -98 -44 -117 -6 -7 -15 -13 -20 -13 -5 0 -2 7 6 16 20
19 20 13 -4 68 -10 25 -16 46 -11 46 5 0 15 -17 23 -37z m996 -11 l3 -43 -33
3 c-25 2 -34 8 -36 25 -3 17 3 24 22 29 14 3 26 11 26 16 0 6 -9 8 -20 5 -11
-3 -20 -1 -20 5 0 5 12 8 28 6 24 -3 27 -7 30 -46z m160 1 c2 -26 -1 -43 -7
-43 -6 0 -11 18 -11 41 0 33 -3 40 -17 37 -13 -2 -19 -14 -21 -41 -4 -50 -22
-47 -22 4 0 33 -3 40 -17 37 -13 -2 -19 -14 -21 -41 -4 -52 -22 -47 -22 7 l0
43 68 -1 67 -1 3 -42z m262 38 c0 -5 -8 -7 -18 -4 -10 2 -25 -3 -32 -12 -18
-21 -1 -50 28 -49 12 0 19 -3 16 -8 -8 -12 -38 -10 -52 4 -29 29 -7 78 35 78
13 0 23 -4 23 -9z m78 -39 l3 -43 -33 3 c-25 2 -34 8 -36 25 -3 17 3 24 22 29
14 3 26 11 26 16 0 6 -9 8 -20 5 -11 -3 -20 -1 -20 5 0 5 12 8 28 6 24 -3 27
-7 30 -46z m94 35 c11 -18 10 -77 -2 -77 -5 0 -10 18 -10 41 0 33 -3 40 -17
37 -13 -2 -19 -14 -21 -41 -4 -52 -22 -47 -22 6 0 43 1 44 32 45 18 0 36 -5
40 -11z m100 0 c11 -18 10 -77 -2 -77 -5 0 -10 18 -10 41 0 33 -3 40 -17 37
-13 -2 -19 -14 -21 -41 -4 -52 -22 -47 -22 6 0 43 1 44 32 45 18 0 36 -5 40
-11z m96 -14 c3 -20 -1 -23 -27 -23 -24 0 -29 -4 -24 -16 4 -10 14 -14 29 -11
13 2 21 0 18 -4 -8 -13 -38 -11 -52 3 -16 16 -15 51 0 66 20 20 53 10 56 -15z
m59 15 c-11 -6 -17 -22 -17 -43 0 -19 -4 -35 -10 -35 -5 0 -10 20 -10 44 0 40
2 44 27 44 21 0 23 -2 10 -10z m230 0 c-11 -6 -17 -22 -17 -43 0 -19 -4 -35
-10 -35 -5 0 -10 20 -10 44 0 40 2 44 27 44 21 0 23 -2 10 -10z m101 0 c28
-28 7 -78 -33 -78 -27 0 -45 18 -45 45 0 27 18 45 45 45 12 0 26 -5 33 -12z
m52 -42 c0 -55 -16 -83 -42 -73 -8 4 -7 6 5 6 14 1 17 11 17 61 0 33 4 60 10
60 6 0 10 -24 10 -54z m88 27 c3 -20 -1 -23 -27 -23 -24 0 -29 -4 -24 -16 4
-10 14 -14 29 -11 13 2 21 0 18 -4 -8 -13 -38 -11 -52 3 -16 16 -15 51 0 66
20 20 53 10 56 -15z m279 15 c32 -26 3 -86 -37 -75 -16 4 -20 0 -20 -19 0 -13
-4 -24 -10 -24 -6 0 -10 28 -10 63 l0 64 32 1 c18 0 38 -4 45 -10z m54 -25
l13 -38 14 38 c8 20 19 37 23 37 10 0 -26 -97 -43 -117 -6 -7 -18 -13 -27 -13
-14 1 -14 2 2 11 21 12 22 35 2 83 -8 20 -11 36 -6 36 5 0 15 -17 22 -37z
m1007 -11 l3 -43 -33 3 c-25 2 -34 8 -36 25 -3 17 3 24 22 29 14 3 26 11 26
16 0 6 -9 8 -20 5 -11 -3 -20 -1 -20 5 0 5 12 8 28 6 24 -3 27 -7 30 -46z m59
36 c-11 -6 -17 -22 -17 -43 0 -19 -4 -35 -10 -35 -5 0 -10 20 -10 44 0 40 2
44 27 44 21 0 23 -2 10 -10z m193 3 c0 -5 -8 -7 -19 -4 -30 8 -35 -16 -6 -27
35 -13 30 -44 -8 -48 -15 -2 -27 1 -27 6 0 6 8 8 19 5 30 -8 35 16 7 27 -25 9
-34 29 -19 43 10 10 53 8 53 -2z m180 -36 c0 -25 -4 -45 -10 -45 -5 0 -10 20
-10 45 0 25 5 45 10 45 6 0 10 -20 10 -45z m89 13 l9 -33 12 33 c13 35 30 43
30 15 0 -10 5 -25 10 -33 7 -12 11 -8 16 18 4 17 10 32 14 32 10 0 -8 -71 -20
-84 -5 -5 -15 6 -23 25 l-14 34 -7 -32 c-10 -45 -21 -41 -39 12 -9 25 -12 45
-7 45 5 0 14 -15 19 -32z m179 -16 l3 -43 -33 3 c-25 2 -34 8 -36 25 -3 17 3
24 22 29 14 3 26 11 26 16 0 6 -9 8 -20 5 -11 -3 -20 -1 -20 5 0 5 12 8 28 6
24 -3 27 -7 30 -46z m59 36 c-11 -6 -17 -22 -17 -43 0 -19 -4 -35 -10 -35 -5
0 -10 20 -10 44 0 40 2 44 27 44 21 0 23 -2 10 -10z m99 1 c33 -27 5 -87 -35
-76 -15 4 -21 -1 -24 -22 -2 -14 -5 3 -6 39 -1 64 0 66 25 68 15 1 33 -3 40
-9z m54 -34 c0 -25 -4 -45 -10 -45 -5 0 -10 20 -10 45 0 25 5 45 10 45 6 0 10
-20 10 -45z m92 32 c11 -18 10 -77 -2 -77 -5 0 -10 18 -10 41 0 33 -3 40 -17
37 -13 -2 -19 -14 -21 -41 -4 -52 -22 -47 -22 6 0 43 1 44 32 45 18 0 36 -5
40 -11z m116 -45 c-3 -31 -11 -58 -19 -63 -17 -11 -59 -12 -59 -1 0 4 12 8 27
7 18 0 29 6 31 17 2 12 -2 15 -17 11 -27 -7 -51 13 -51 41 0 32 18 45 58 44
l34 -1 -4 -55z m138 47 c33 -27 5 -87 -35 -76 -15 4 -21 -1 -24 -22 -2 -14 -5
3 -6 39 -1 64 0 66 25 68 15 1 33 -3 40 -9z m56 -26 l14 -38 14 38 c8 20 18
37 22 37 9 0 -28 -98 -44 -117 -6 -7 -15 -13 -20 -13 -5 0 -2 7 6 16 20 19 20
13 -4 68 -10 25 -16 46 -11 46 5 0 15 -17 23 -37z m-18236 18 c-9 -14 20 -32
38 -25 10 4 15 13 12 20 -3 8 -1 14 5 14 6 0 9 -10 7 -22 -3 -26 -41 -36 -64
-18 -16 14 -19 40 -3 40 5 0 8 -4 5 -9z m9224 -16 c0 -19 -5 -25 -22 -26 -20
-1 -21 -2 -4 -6 12 -3 25 2 32 12 16 22 34 11 34 -21 0 -20 -5 -24 -32 -25
-18 -1 -25 -3 -16 -6 16 -4 16 -6 3 -19 -25 -25 -50 -13 -50 24 0 27 -2 30
-11 17 -17 -23 -26 -18 -22 13 2 22 9 28 38 33 19 4 29 7 23 8 -21 2 -15 21 7
21 15 0 20 -7 20 -25z m3210 0 c0 -19 -5 -25 -22 -26 -20 -1 -21 -2 -4 -6 12
-3 25 2 32 12 16 22 34 11 34 -21 0 -20 -5 -24 -32 -25 -18 -1 -25 -3 -16 -6
16 -4 16 -6 3 -19 -25 -25 -50 -13 -50 24 0 27 -2 30 -11 17 -17 -23 -26 -18
-22 13 2 22 9 28 38 33 19 4 29 7 23 8 -21 2 -15 21 7 21 15 0 20 -7 20 -25z
m1538 -7 c-4 -26 -3 -28 7 -15 19 26 35 20 35 -13 0 -16 -5 -30 -11 -30 -15 0
-39 -26 -31 -35 4 -4 -6 -5 -23 -3 -27 3 -30 7 -30 36 0 27 -2 30 -11 17 -17
-23 -26 -18 -22 13 2 21 9 28 30 30 19 2 25 8 21 18 -3 9 2 14 17 14 19 0 22
-4 18 -32z m2662 7 c0 -19 -5 -25 -22 -26 -20 -1 -21 -2 -4 -6 12 -3 25 2 32
12 16 22 34 11 34 -21 0 -20 -5 -24 -32 -25 -18 -1 -25 -3 -16 -6 16 -4 16 -6
3 -19 -25 -25 -50 -13 -50 24 0 27 -2 30 -11 17 -17 -23 -26 -18 -22 13 2 22
9 28 38 33 19 4 29 7 23 8 -21 2 -15 21 7 21 15 0 20 -7 20 -25z m-16570 -65
c0 -24 -5 -31 -26 -36 -30 -8 -60 16 -51 40 10 24 47 20 47 -5 0 -12 4 -17 11
-13 6 3 9 15 6 25 -3 11 -1 19 4 19 5 0 9 -13 9 -30z m11500 20 c0 -5 -4 -10
-10 -10 -5 0 -10 5 -10 10 0 6 5 10 10 10 6 0 10 -4 10 -10z m1550 0 c0 -5 -4
-10 -10 -10 -5 0 -10 5 -10 10 0 6 5 10 10 10 6 0 10 -4 10 -10z m2650 0 c0
-5 -4 -10 -10 -10 -5 0 -10 5 -10 10 0 6 5 10 10 10 6 0 10 -4 10 -10z m2320
0 c0 -5 -4 -10 -10 -10 -5 0 -10 5 -10 10 0 6 5 10 10 10 6 0 10 -4 10 -10z
m-8157 -37 c-13 -2 -33 -2 -45 0 -13 2 -3 4 22 4 25 0 35 -2 23 -4z m560 0
c-13 -2 -33 -2 -45 0 -13 2 -3 4 22 4 25 0 35 -2 23 -4z m280 0 c-13 -2 -33
-2 -45 0 -13 2 -3 4 22 4 25 0 35 -2 23 -4z m410 0 c-13 -2 -33 -2 -45 0 -13
2 -3 4 22 4 25 0 35 -2 23 -4z m3320 0 c-13 -2 -33 -2 -45 0 -13 2 -3 4 22 4
25 0 35 -2 23 -4z m690 0 c-13 -2 -33 -2 -45 0 -13 2 -3 4 22 4 25 0 35 -2 23
-4z m-15085 -68 c4 -18 3 -19 -10 -3 -8 11 -31 19 -63 21 -44 3 -42 4 10 3 52
-1 60 -4 63 -21z m-43 -50 c0 -26 -3 -30 -29 -30 -32 0 -53 23 -43 49 5 12 16
16 39 14 29 -3 33 -6 33 -33z m-52 -69 c3 -8 18 -16 34 -19 22 -3 19 -4 -12
-6 -34 -1 -41 2 -42 19 -2 23 12 27 20 6z m241 -42 c25 -14 48 -29 50 -33 3
-4 -20 -21 -50 -39 l-54 -31 0 65 c0 35 2 64 4 64 2 0 24 -12 50 -26z m-228
-33 c4 -20 14 -31 28 -34 11 -2 -5 -5 -36 -6 -57 -1 -58 -1 -58 27 0 35 6 42
37 42 18 0 25 -7 29 -29z m74 -176 c0 -25 -4 -45 -10 -45 -5 0 -10 20 -10 45
0 25 5 45 10 45 6 0 10 -20 10 -45z m-72 -2 c-36 -3 -46 -7 -41 -19 3 -7 1
-14 -5 -14 -5 0 -12 9 -15 20 -5 18 -1 20 51 18 57 -2 57 -2 10 -5z m302 -59
c0 -16 -54 -103 -61 -99 -7 5 -59 93 -59 101 0 2 27 4 60 4 33 0 60 -3 60 -6z
m-336 -89 c3 -10 19 -15 46 -15 l40 0 0 -50 0 -50 -80 0 -80 0 0 65 0 65 34 0
c21 0 36 -6 40 -15z m17016 -3110 l0 -3125 -3660 0 -3660 0 0 3125 0 3125
3660 0 3660 0 0 -3125z m-16942 2619 c-6 -52 -73 -58 -73 -8 0 10 8 20 18 22
13 3 17 -3 17 -23 0 -17 5 -25 13 -22 6 2 12 16 12 30 -1 15 3 27 8 27 4 0 7
-12 5 -26z m-27 -94 l34 -8 -40 -1 c-35 -1 -41 2 -42 21 -2 16 0 19 6 9 5 -7
24 -17 42 -21z m25 -62 c-1 -31 -3 -33 -41 -35 l-40 -1 35 6 c26 5 35 12 35
27 0 15 -9 22 -35 26 l-35 6 41 2 c40 1 41 0 40 -31z m-36 -68 c16 0 31 6 33
13 4 7 6 6 6 -4 1 -12 -10 -18 -38 -21 -51 -5 -64 0 -48 17 7 7 14 9 15 4 2
-5 16 -9 32 -9z m-26 -54 c-3 -9 3 -17 15 -21 26 -8 44 2 37 21 -3 8 -1 14 4
14 6 0 10 -9 10 -20 0 -24 -44 -38 -65 -20 -17 14 -20 40 -5 40 5 0 7 -6 4
-14z m62 -88 c-1 -31 -3 -33 -41 -35 l-40 -1 35 6 c26 5 35 12 35 27 0 15 -9
22 -35 26 l-35 6 41 2 c40 1 41 0 40 -31z m8992 -45 c-10 -2 -28 -2 -40 0 -13
2 -5 4 17 4 22 1 32 -1 23 -4z m-9017 -43 l34 -8 -40 -1 c-35 -1 -41 2 -42 21
-2 16 0 19 6 9 5 -7 24 -17 42 -21z m8777 -7 c-10 -2 -28 -2 -40 0 -13 2 -5 4
17 4 22 1 32 -1 23 -4z m605 0 c-7 -2 -21 -2 -30 0 -10 3 -4 5 12 5 17 0 24
-2 18 -5z m-9393 -33 c16 0 31 6 33 13 4 7 6 6 6 -4 1 -12 -10 -18 -38 -21
-51 -5 -64 0 -48 17 7 7 14 9 15 4 2 -5 16 -9 32 -9z m18990 -40 c0 -5 -25
-10 -55 -10 -30 0 -55 5 -55 10 0 6 25 10 55 10 30 0 55 -4 55 -10z m-19045
-27 c0 -37 17 -38 37 -2 23 40 52 36 56 -9 2 -17 -1 -32 -5 -32 -5 0 -9 12 -8
27 0 37 -17 38 -37 3 -19 -33 -42 -39 -52 -14 -9 22 -7 54 2 54 4 0 8 -12 7
-27z m122 -200 c-2 -16 -4 -5 -4 22 0 28 2 40 4 28 2 -13 2 -35 0 -50z m-76
33 c62 -28 61 -33 -1 -11 -23 8 -44 15 -46 15 -1 0 -5 -12 -7 -27 -3 -23 -4
-21 -6 10 0 20 1 37 3 37 2 0 28 -11 57 -24z m39 -176 c0 -25 -4 -30 -25 -30
-21 0 -25 5 -25 30 0 25 4 30 25 30 21 0 25 -5 25 -30z m-70 -70 c0 -25 -4
-30 -25 -30 -27 0 -41 20 -31 45 3 8 17 15 31 15 21 0 25 -5 25 -30z m70 0 c0
-25 -4 -30 -25 -30 -20 0 -25 5 -25 23 0 28 7 37 32 37 13 0 18 -8 18 -30z
m8510 -359 c-26 -4 -36 -12 -38 -28 -3 -20 1 -23 30 -24 l33 -1 -30 -7 c-24
-5 -30 -12 -30 -31 0 -21 6 -26 35 -31 l35 -6 -42 -2 -43 -1 0 70 0 70 43 -1
42 -2 -35 -6z m93 -18 l14 -26 18 27 c24 36 31 26 10 -14 -15 -30 -15 -33 4
-66 11 -19 16 -34 10 -34 -5 0 -15 11 -21 25 -6 14 -14 25 -18 25 -4 0 -12
-11 -18 -25 -6 -14 -17 -25 -23 -25 -6 0 -2 15 10 36 l22 36 -20 34 c-11 19
-16 34 -11 34 5 0 16 -12 23 -27z m182 17 c-3 -5 -13 -10 -21 -10 -11 0 -14
-14 -14 -60 0 -33 -4 -60 -10 -60 -6 0 -10 27 -10 60 0 46 -3 60 -14 60 -8 0
-18 5 -21 10 -4 6 13 10 45 10 32 0 49 -4 45 -10z m110 0 c-3 -5 -17 -10 -31
-10 -17 0 -24 -5 -24 -20 0 -15 7 -20 25 -20 14 0 25 -4 25 -10 0 -5 -11 -10
-25 -10 -18 0 -25 -5 -25 -20 0 -15 7 -20 24 -20 14 0 28 -4 31 -10 4 -6 -10
-10 -34 -10 l-41 0 0 70 0 70 41 0 c24 0 38 -4 34 -10z m109 4 c18 -7 22 -64
5 -64 -11 0 -9 -16 6 -52 4 -10 3 -18 -2 -18 -5 0 -14 14 -20 30 -15 40 -41
39 -46 -2 -2 -18 -5 0 -5 40 -2 70 -1 72 22 72 13 0 31 -3 40 -6z m94 -41 l20
-48 1 48 c1 26 6 47 11 47 6 0 10 -30 10 -71 0 -85 -14 -88 -44 -8 l-21 54 -6
-60 -6 -60 -1 73 c-1 39 2 72 7 72 5 0 18 -21 29 -47z m153 -26 c9 -37 13 -67
9 -67 -5 0 -12 9 -15 20 -4 11 -15 20 -27 20 -11 0 -22 -8 -25 -20 -4 -16 -23
-30 -23 -17 0 4 29 105 36 125 9 29 29 2 45 -61z m69 13 l0 -60 30 0 c17 0 30
-4 30 -10 0 -5 -18 -10 -40 -10 l-40 0 0 70 c0 40 4 70 10 70 6 0 10 -27 10
-60z m144 -65 c-4 -8 -8 -15 -10 -15 -2 0 -4 7 -4 15 0 8 4 15 10 15 5 0 7 -7
4 -15z m-604 -1135 c15 -15 20 -33 20 -70 0 -50 -23 -90 -52 -90 -6 0 -2 9 10
20 17 16 22 32 22 70 0 38 -5 54 -22 70 -12 11 -16 20 -10 20 7 0 21 -9 32
-20z m480 0 c15 -15 20 -33 20 -70 0 -50 -23 -90 -52 -90 -6 0 -2 9 10 20 17
16 22 32 22 70 0 38 -5 54 -22 70 -12 11 -16 20 -10 20 7 0 21 -9 32 -20z
m-576 -16 c9 -9 16 -32 16 -54 0 -22 -7 -45 -16 -54 -18 -19 -20 -19 -45 -6
-26 15 -28 104 -1 119 23 14 28 14 46 -5z m486 9 c0 -3 -8 -15 -17 -25 -16
-18 -15 -19 5 -34 30 -20 28 -52 -3 -66 -22 -10 -29 -9 -43 6 -16 18 -16 18 7
6 19 -10 26 -9 39 3 19 20 9 47 -18 47 -26 0 -25 12 1 36 l21 19 -33 6 -34 6
38 2 c20 0 37 -2 37 -6z m-266 -118 c-4 -8 -8 -15 -10 -15 -2 0 -4 7 -4 15 0
8 4 15 10 15 5 0 7 -7 4 -15z m-124 -505 c15 -15 20 -33 20 -70 0 -50 -23 -90
-52 -90 -6 0 -2 9 10 20 17 16 22 32 22 70 0 38 -5 54 -22 70 -12 11 -16 20
-10 20 7 0 21 -9 32 -20z m-203 -82 c-2 -13 -4 -5 -4 17 -1 22 1 32 4 23 2
-10 2 -28 0 -40z m83 2 c16 0 31 6 33 13 3 7 6 5 6 -5 1 -14 -7 -18 -33 -18
-19 0 -37 -6 -39 -12 -3 -7 -5 1 -5 17 0 17 2 24 5 18 2 -7 17 -13 33 -13z
m-8546 -1556 c25 -14 48 -29 50 -33 3 -4 -20 -21 -50 -39 l-54 -31 0 65 c0 35
2 64 4 64 2 0 24 -12 50 -26z m18229 -1184 c3 -13 14 -20 30 -20 33 0 41 -14
25 -40 -10 -16 -10 -24 0 -40 16 -26 8 -40 -25 -40 -16 0 -27 -7 -30 -20 -3
-11 -13 -20 -23 -20 -10 0 -20 9 -23 20 -3 13 -14 20 -30 20 -33 0 -41 14 -25
40 10 16 10 24 0 40 -16 26 -8 40 25 40 16 0 27 7 30 20 3 11 13 20 23 20 10
0 20 -9 23 -20z m-18153 -29 c0 -4 -11 -6 -25 -3 -22 4 -25 1 -25 -23 0 -23 4
-27 23 -23 17 3 23 0 24 -15 2 -15 -1 -17 -10 -8 -20 20 -36 12 -40 -21 -2
-18 -5 -3 -5 35 l-2 67 30 0 c17 0 30 -4 30 -9z m18610 -51 c0 -6 -37 -10 -90
-10 -53 0 -90 4 -90 10 0 6 37 10 90 10 53 0 90 -4 90 -10z m-18936 -14 c-3
-8 -1 -17 5 -20 5 -4 13 3 16 14 9 27 39 22 43 -8 2 -12 -1 -22 -6 -22 -6 0
-8 9 -5 20 7 26 -14 26 -22 -1 -9 -26 -39 -21 -43 9 -2 12 1 22 7 22 6 0 8 -6
5 -14z m64 -72 c-6 -52 -73 -58 -73 -8 0 10 8 20 18 22 13 3 17 -3 17 -23 0
-17 5 -25 13 -22 6 2 12 16 12 30 -1 15 3 27 8 27 4 0 7 -12 5 -26z m-38 -74
c16 0 31 6 33 13 4 7 6 6 6 -4 1 -12 -10 -18 -38 -21 -51 -5 -64 0 -48 17 7 7
14 9 15 4 2 -5 16 -9 32 -9z m23 -57 c-13 -2 -33 -2 -45 0 -13 2 -3 4 22 4 25
0 35 -2 23 -4z m-12 -53 l34 -8 -40 -1 c-35 -1 -41 2 -42 21 -2 16 0 19 6 9 5
-7 24 -17 42 -21z m26 -46 c9 -24 -10 -49 -37 -49 -27 0 -46 25 -37 49 4 10
18 16 37 16 19 0 33 -6 37 -16z m2 -99 c7 -7 -1 -13 -42 -30 -20 -8 -37 -11
-37 -6 0 5 11 12 25 15 14 4 25 11 25 16 0 5 -11 12 -25 16 -14 3 -25 10 -25
15 0 8 67 -14 79 -26z m-3 -82 c-1 -38 -33 -44 -42 -9 -3 14 -11 26 -16 26 -6
0 -8 -10 -5 -21 4 -16 3 -19 -5 -11 -19 19 -1 42 35 42 31 0 34 -3 33 -27z
m-75 -103 c14 0 19 7 20 28 l2 27 4 -27 c3 -20 11 -28 31 -31 15 -2 1 -5 -30
-6 l-58 -1 1 33 c2 30 2 30 6 5 3 -20 10 -28 24 -28z m106 -167 c-2 -16 -4 -5
-4 22 0 28 2 40 4 28 2 -13 2 -35 0 -50z m-66 21 l24 -26 6 29 7 28 1 -32 c1
-40 -10 -42 -43 -7 -29 32 -62 27 -51 -7 5 -15 4 -19 -4 -15 -12 8 -15 39 -4
49 13 14 40 6 64 -19z m-16 -144 c12 -24 22 -30 48 -30 l32 -1 -27 -20 c-22
-17 -26 -25 -21 -50 6 -29 5 -30 -21 -18 -20 10 -32 10 -52 0 -26 -12 -27 -11
-21 18 5 24 1 34 -20 51 l-26 20 33 0 c26 0 34 5 43 30 6 17 13 30 14 30 1 0
9 -13 18 -30z m17744 -421 c40 -14 61 -54 61 -119 l0 -50 -58 0 c-64 0 -93 15
-114 58 -10 20 -11 32 -3 48 16 33 37 55 60 64 11 5 20 9 21 9 1 1 15 -4 33
-10z m184 -56 c-15 -3 -23 -12 -23 -24 0 -13 7 -19 23 -20 l22 -2 -22 -4 c-14
-3 -23 -12 -23 -23 0 -11 9 -20 23 -23 19 -4 18 -4 -5 -6 -27 -1 -28 0 -28 54
0 54 1 55 28 54 23 -2 24 -2 5 -6z m425 -96 c25 -4 24 -4 -5 -6 l-33 -1 2 58
2 57 3 -52 c4 -47 6 -52 31 -56z m-109 65 c-14 -5 -11 -60 4 -65 7 -3 5 -6 -5
-6 -14 -1 -18 7 -18 34 0 19 -5 35 -10 35 -7 0 -6 5 2 13 9 10 16 11 24 3 7
-6 8 -12 3 -14z m-259 -24 l13 -33 10 33 c5 17 14 32 19 32 4 0 1 -16 -7 -36
-8 -20 -15 -38 -15 -40 0 -2 -4 -4 -8 -4 -5 0 -16 18 -25 40 -8 22 -12 40 -7
40 4 0 14 -15 20 -32z m120 12 c10 -18 8 -20 -20 -20 -21 0 -30 -4 -27 -12 2
-7 14 -13 26 -12 11 0 21 -3 21 -8 0 -5 -12 -8 -27 -6 -22 2 -29 9 -31 32 -5
44 38 64 58 26z m87 -25 l1 -40 -6 35 c-9 46 -36 47 -40 3 -5 -46 -22 -41 -22
6 0 38 1 39 33 38 30 -2 32 -4 34 -42z m261 11 c4 -36 -10 -50 -42 -42 -21 5
-26 13 -26 35 0 31 12 41 45 38 14 -1 21 -11 23 -31z m92 -16 c0 -25 -5 -51
-12 -58 -14 -14 -44 -16 -52 -3 -4 5 3 7 15 4 12 -4 25 0 30 8 14 22 11 25
-18 24 -22 0 -29 5 -31 23 -6 39 5 53 38 50 29 -2 30 -4 30 -48z m278 -197 c2
-13 10 -23 18 -23 8 0 14 -4 14 -10 0 -5 -7 -10 -16 -10 -10 0 -13 -6 -10 -17
3 -10 0 -29 -7 -43 -11 -22 -10 -27 8 -42 19 -17 17 -17 -65 -17 -82 0 -84 0
-65 17 18 15 19 20 8 42 -7 14 -10 33 -7 43 3 11 0 17 -10 17 -9 0 -16 5 -16
10 0 6 7 10 15 10 8 0 15 8 15 18 0 29 10 33 65 30 43 -3 50 -6 53 -25z
m-18738 -58 l0 -75 -75 0 -75 0 0 75 0 75 75 0 75 0 0 -75z m18288 63 c5 -7
12 -24 14 -38 2 -21 9 -26 41 -28 36 -3 37 -4 37 -43 l0 -39 -60 0 -60 0 0 40
c0 22 5 40 11 40 6 0 9 12 7 28 -4 33 -32 37 -36 5 -4 -30 -22 -30 -22 0 0 41
44 63 68 35z m-1628 -26 c0 -24 4 -28 28 -27 25 0 27 -3 30 -42 2 -26 -1 -43
-7 -43 -6 0 -11 18 -11 41 0 33 -3 40 -17 37 -13 -2 -19 -14 -21 -41 -5 -65
-22 -40 -22 33 0 40 4 70 10 70 6 0 10 -13 10 -28z m1030 0 c0 -24 4 -28 28
-27 25 0 27 -3 30 -42 2 -26 -1 -43 -7 -43 -6 0 -11 18 -11 41 0 33 -3 40 -17
37 -13 -2 -19 -14 -21 -41 -5 -65 -22 -40 -22 33 0 40 4 70 10 70 6 0 10 -13
10 -28z m-17462 -14 c2 -16 -2 -28 -8 -28 -7 0 -8 -6 0 -19 15 -30 12 -38 -6
-13 -22 32 -42 28 -47 -10 -2 -18 -5 -2 -5 35 l-2 68 33 -3 c27 -2 33 -8 35
-30z m13550 16 c13 -24 4 -51 -24 -69 -33 -21 -30 -33 9 -38 28 -3 26 -4 -10
-5 -53 -2 -57 17 -13 50 37 27 38 63 3 62 -12 0 -20 3 -17 8 9 14 43 9 52 -8z
m103 0 c10 -12 10 -20 1 -34 -7 -12 -8 -21 -2 -25 20 -13 10 -45 -16 -51 -33
-8 -60 16 -49 43 4 10 7 28 6 40 -1 13 0 27 4 33 9 15 41 12 56 -6z m137 0
c13 -24 4 -51 -24 -69 -33 -21 -30 -33 9 -38 28 -3 26 -4 -10 -5 -53 -2 -57
17 -13 50 37 27 38 63 3 62 -12 0 -20 3 -17 8 9 14 43 9 52 -8z m100 0 c13
-24 4 -51 -24 -69 -33 -21 -30 -33 9 -38 28 -3 26 -4 -10 -5 -53 -2 -57 17
-13 50 37 27 38 63 3 62 -12 0 -20 3 -17 8 9 14 43 9 52 -8z m292 8 c0 -4 -12
-8 -27 -7 -40 0 -61 -46 -38 -82 12 -18 23 -24 41 -20 13 2 24 0 24 -4 0 -15
-53 -10 -72 8 -40 36 -8 113 47 113 14 0 25 -4 25 -8z m100 -12 c8 -14 7 -22
-4 -32 -12 -11 -11 -18 6 -45 11 -18 15 -33 9 -33 -6 0 -17 14 -26 30 -21 40
-43 39 -48 -2 -2 -18 -5 -3 -5 35 l-2 67 30 0 c19 0 33 -7 40 -20z m78 -103
c25 -4 24 -4 -5 -6 l-33 -1 2 68 2 67 3 -62 c4 -58 5 -62 31 -66z m80 116
c-22 -3 -28 -10 -28 -29 0 -19 5 -24 28 -25 l27 -2 -27 -4 c-22 -3 -28 -10
-31 -36 -2 -18 -5 -2 -5 36 l-2 67 33 -1 c30 -2 30 -2 5 -6z m272 -108 c23 0
25 4 28 58 4 70 22 76 22 8 0 -67 -26 -93 -74 -75 -13 5 -16 20 -14 68 l1 61
6 -60 c6 -56 8 -60 31 -60z m133 108 c-21 -4 -23 -11 -25 -66 l-2 -62 -3 62
c-3 54 -7 62 -26 66 -12 2 1 4 28 4 28 0 40 -2 28 -4z m75 0 c-22 -3 -28 -10
-28 -29 0 -19 5 -24 28 -25 l27 -2 -27 -4 c-22 -3 -28 -10 -31 -36 -2 -18 -5
-2 -5 36 l-2 67 33 -1 c30 -2 30 -2 5 -6z m183 -9 c10 -12 10 -20 1 -34 -7
-12 -8 -21 -2 -25 20 -13 10 -45 -16 -51 -33 -8 -60 16 -49 43 4 10 7 28 6 40
-1 13 0 27 4 33 9 15 41 12 56 -6z m281 -33 c1 -26 2 -56 0 -65 -4 -20 -22
-21 -22 -2 0 9 -12 16 -29 18 l-30 3 31 48 c18 26 35 47 39 47 4 0 9 -22 11
-49z m856 21 c4 -28 -14 -52 -39 -52 -12 0 -19 -9 -22 -27 -2 -16 -5 3 -6 40
l-1 68 33 -3 c25 -2 33 -8 35 -26z m599 12 c3 -9 2 -24 -4 -33 -7 -12 -6 -19
5 -27 24 -17 -2 -54 -38 -54 -17 0 -30 4 -30 8 0 4 12 8 28 7 37 0 39 38 2 44
l-25 4 25 6 c16 5 25 14 25 26 0 12 -9 22 -25 26 l-25 7 28 1 c17 1 30 -5 34
-15z m133 -31 c-10 -27 -21 -57 -25 -68 -4 -11 -9 -15 -12 -9 -2 6 5 34 16 62
l20 51 -32 4 c-28 3 -26 4 10 5 l42 2 -19 -47z m115 10 c-14 -39 -10 -88 8
-110 6 -9 6 -13 -1 -13 -6 0 -17 18 -23 40 -9 31 -9 49 0 80 6 22 16 40 20 40
5 0 3 -17 -4 -37z m74 -15 l23 -53 21 52 c12 29 25 53 30 53 4 0 6 -30 5 -67
-1 -63 -2 -64 -6 -18 l-4 50 -23 -50 -23 -50 -23 50 -24 50 -6 -50 c-6 -49 -6
-49 -7 18 -1 37 2 67 7 67 4 0 18 -24 30 -52z m401 42 c0 -5 -4 -10 -10 -10
-5 0 -10 5 -10 10 0 6 5 10 10 10 6 0 10 -4 10 -10z m228 -15 c20 -44 9 -135
-17 -135 -5 0 -3 12 5 28 7 15 14 38 14 52 0 14 -7 37 -14 53 -8 15 -11 27 -7
27 4 0 13 -11 19 -25z m-18113 -126 l70 -5 -77 -2 -78 -2 2 78 2 77 5 -70 6
-70 70 -6z m16713 110 c15 -1 15 -2 0 -6 -12 -3 -18 -14 -18 -33 0 -17 7 -34
18 -40 15 -10 15 -10 -3 -8 -15 2 -21 12 -23 41 -4 48 -24 48 -41 0 -17 -48
-39 -83 -52 -83 -6 0 -3 7 5 16 20 19 20 13 -4 68 -10 25 -16 46 -11 46 5 0
15 -17 23 -37 l14 -38 14 38 c9 24 20 37 32 37 10 0 19 8 19 18 1 16 2 16 6 0
2 -10 12 -19 21 -19z m-2688 -9 c0 -5 -4 -10 -10 -10 -5 0 -10 5 -10 10 0 6 5
10 10 10 6 0 10 -4 10 -10z m1820 1 c0 -5 -8 -7 -19 -4 -30 8 -35 -16 -6 -27
35 -13 30 -44 -8 -48 -15 -2 -27 1 -27 6 0 6 8 8 19 5 30 -8 35 16 7 27 -25 9
-34 29 -19 43 10 10 53 8 53 -2z m96 -2 c33 -27 5 -87 -35 -76 -15 4 -21 -1
-24 -22 -2 -14 -5 3 -6 39 -1 64 0 66 25 68 15 1 33 -3 40 -9z m102 -37 l3
-43 -33 3 c-25 2 -34 8 -36 25 -3 17 3 24 22 29 14 3 26 11 26 16 0 6 -9 8
-20 5 -11 -3 -20 -1 -20 5 0 5 12 8 28 6 24 -3 27 -7 30 -46z m92 39 c0 -5 -8
-7 -18 -4 -10 2 -25 -3 -32 -12 -18 -21 -1 -50 28 -49 12 0 19 -3 16 -8 -8
-12 -38 -10 -52 4 -29 29 -7 78 35 78 13 0 23 -4 23 -9z m78 -18 c3 -20 -1
-23 -27 -23 -24 0 -29 -4 -24 -16 4 -10 14 -14 29 -11 13 2 21 0 18 -4 -8 -13
-38 -11 -52 3 -16 16 -15 51 0 66 20 20 53 10 56 -15z m82 18 c0 -5 -8 -7 -19
-4 -30 8 -35 -16 -6 -27 35 -13 30 -44 -8 -48 -15 -2 -27 1 -27 6 0 6 8 8 19
5 30 -8 35 16 7 27 -25 9 -34 29 -19 43 10 10 53 8 53 -2z m618 -3 c28 -28 7
-78 -33 -78 -27 0 -45 18 -45 45 0 27 18 45 45 45 12 0 26 -5 33 -12z m104 -1
c11 -18 10 -77 -2 -77 -5 0 -10 18 -10 41 0 33 -3 40 -17 37 -13 -2 -19 -14
-21 -41 -4 -52 -22 -47 -22 6 0 43 1 44 32 45 18 0 36 -5 40 -11z m646 -35 l3
-43 -33 3 c-25 2 -34 8 -36 25 -3 17 3 24 22 29 14 3 26 11 26 16 0 6 -9 8
-20 5 -11 -3 -20 -1 -20 5 0 5 12 8 28 6 24 -3 27 -7 30 -46z m92 39 c0 -5 -8
-7 -18 -4 -10 2 -25 -3 -32 -12 -18 -21 -1 -50 28 -49 12 0 19 -3 16 -8 -8
-12 -38 -10 -52 4 -29 29 -7 78 35 78 13 0 23 -4 23 -9z m130 -36 c0 -25 -4
-45 -10 -45 -5 0 -10 20 -10 45 0 25 5 45 10 45 6 0 10 -20 10 -45z m92 32
c11 -18 10 -77 -2 -77 -5 0 -10 18 -10 41 0 33 -3 40 -17 37 -13 -2 -19 -14
-21 -41 -4 -52 -22 -47 -22 6 0 43 1 44 32 45 18 0 36 -5 40 -11z m96 -14 c3
-20 -1 -23 -27 -23 -24 0 -29 -4 -24 -16 4 -10 14 -14 29 -11 13 2 21 0 18 -4
-8 -13 -38 -11 -52 3 -16 16 -15 51 0 66 20 20 53 10 56 -15z m-2745 -10 c-7
-2 -21 -2 -30 0 -10 3 -4 5 12 5 17 0 24 -2 18 -5z m-1303 -43 c0 -5 -4 -10
-10 -10 -5 0 -10 5 -10 10 0 6 5 10 10 10 6 0 10 -4 10 -10z m3190 0 c0 -5 -4
-10 -10 -10 -5 0 -10 5 -10 10 0 6 5 10 10 10 6 0 10 -4 10 -10z m139 -194
c18 -21 10 -97 -11 -110 -29 -18 -53 4 -56 53 -3 46 10 71 38 71 10 0 23 -6
29 -14z m99 2 c17 -17 15 -84 -4 -102 -17 -17 -64 -22 -64 -6 0 5 7 7 15 4 15
-6 45 12 45 27 0 4 -12 9 -27 11 -22 2 -29 9 -31 32 -5 41 37 63 66 34z m139
-4 c3 -9 2 -24 -4 -33 -7 -12 -6 -19 6 -28 12 -9 14 -16 5 -30 -11 -18 -74
-32 -74 -16 0 5 12 9 28 8 36 0 39 36 2 45 -25 6 -25 6 -2 12 14 4 22 14 22
28 0 19 -4 21 -26 16 -17 -5 -23 -3 -19 4 10 16 55 12 62 -6z m104 0 c10 -12
10 -20 1 -35 -8 -13 -9 -19 -1 -19 5 0 9 -12 7 -27 -3 -25 -7 -28 -38 -28 -31
0 -35 3 -38 28 -2 15 2 27 7 27 8 0 7 6 -1 19 -14 23 3 51 32 51 10 0 23 -7
31 -16z m159 -3 c14 -28 2 -51 -31 -58 -22 -4 -29 -11 -29 -29 0 -13 -4 -24
-10 -24 -6 0 -10 28 -10 65 l0 65 35 0 c24 0 37 -6 45 -19z m69 -28 c8 -24 18
-43 22 -43 3 0 14 20 23 45 26 68 46 59 46 -20 0 -37 -4 -65 -10 -65 -5 0 -10
21 -11 48 l-1 47 -20 -47 c-11 -27 -24 -48 -28 -48 -4 0 -15 19 -25 43 l-19
42 -4 -42 c-5 -67 -22 -50 -22 23 0 56 2 65 17 62 9 -2 23 -22 32 -45z m-1221
30 c-22 -3 -28 -10 -28 -29 0 -19 5 -24 28 -25 l27 -2 -27 -4 c-22 -3 -28 -10
-28 -28 0 -19 6 -24 33 -28 28 -3 26 -4 -10 -5 l-43 -2 0 65 0 65 38 -1 c30
-2 32 -3 10 -6z m99 -40 l28 -48 3 48 c5 71 22 57 22 -18 0 -81 -14 -84 -57
-12 l-32 52 -1 -52 c0 -29 -4 -53 -10 -53 -6 0 -10 28 -10 65 0 81 16 85 57
18z m173 37 c0 -6 -11 -8 -25 -4 -34 8 -55 -11 -55 -50 0 -36 15 -56 42 -56
24 0 25 47 1 53 -11 3 -7 5 10 6 26 1 28 -2 25 -31 -3 -29 -7 -33 -34 -36 -40
-4 -64 19 -64 60 0 42 25 68 67 68 18 0 33 -5 33 -10z m-7330 -22 c54 -27 90
-78 90 -125 0 -48 -45 -93 -94 -93 -41 0 -51 13 -47 57 4 50 -43 93 -101 93
-53 0 -89 -17 -105 -50 -15 -31 -17 -12 -2 27 37 99 159 141 259 91z m658 10
c7 -7 12 -27 12 -45 0 -32 1 -33 40 -33 l41 0 -3 -132 -3 -133 -170 0 -170 0
-3 133 -3 132 41 0 c39 0 40 1 40 33 0 48 15 57 95 57 42 0 76 -5 83 -12z
m1306 1 c144 -36 177 -235 53 -317 -79 -53 -197 -28 -246 51 -60 98 -15 231
90 264 45 15 53 15 103 2z m5896 1 c0 -5 -4 -10 -10 -10 -5 0 -10 5 -10 10 0
6 5 10 10 10 6 0 10 -4 10 -10z m-3770 -171 l0 -159 -160 0 -160 0 0 160 0
159 112 3 c62 2 134 1 160 0 l48 -4 0 -159z m-5506 126 c12 -22 17 -44 13 -63
-7 -37 1 -72 18 -72 19 0 26 -42 11 -60 -38 -45 -23 -63 30 -35 29 14 29 14
40 -18 l11 -32 -145 -3 c-80 -1 -146 -1 -148 1 -2 2 4 28 14 57 18 53 19 54
25 23 5 -23 14 -33 38 -42 51 -17 79 -14 79 9 0 15 -7 20 -28 20 -43 0 -66 22
-58 53 3 15 13 27 20 27 8 0 16 13 18 30 3 17 1 30 -4 30 -12 0 -10 22 7 54 8
15 15 35 15 42 0 26 25 14 44 -21z m3930 10 c-55 -33 -78 -81 -72 -151 5 -58
26 -90 83 -125 40 -25 24 -24 -26 1 -117 60 -114 234 6 286 49 21 53 16 9 -11z
m816 10 c42 -22 82 -78 78 -111 l-3 -27 -31 26 -31 27 -7 -39 c-3 -22 -9 -47
-13 -57 -6 -15 -2 -16 35 -11 49 8 86 -6 101 -40 18 -38 13 -72 -14 -98 -20
-21 -34 -25 -79 -25 -97 0 -124 26 -113 111 5 37 -4 51 -18 29 -11 -18 -23
-11 -30 18 -4 20 -17 32 -50 47 -51 22 -56 41 -25 93 40 66 132 92 200 57z
m1400 0 c0 -2 -9 -3 -19 -2 -11 0 -18 5 -15 9 4 6 34 0 34 -7z m-6874 -25 c5
-5 47 -10 94 -12 l85 -3 0 -110 0 -110 -27 -3 c-16 -2 -28 1 -28 7 0 6 -9 11
-20 11 -11 0 -20 -4 -20 -10 0 -6 -27 -10 -60 -10 -33 0 -60 4 -60 10 0 6 -9
10 -20 10 -11 0 -20 -5 -20 -11 0 -6 -12 -9 -27 -7 l-28 3 -3 109 c-1 61 0
116 2 123 6 15 117 18 132 3z m-7196 -55 l0 -55 -66 0 -65 0 3 48 c3 47 3 47
43 53 88 13 85 15 85 -46z m635 30 c60 -59 -4 -164 -82 -134 -24 9 -31 5 -75
-37 -26 -27 -51 -45 -55 -41 -4 4 14 29 41 55 42 44 46 51 37 75 -30 78 75
142 134 82z m5195 -4 c14 -10 31 -36 39 -58 13 -36 12 -43 -5 -79 -27 -55 -81
-81 -134 -65 -72 21 -105 93 -73 159 33 68 112 88 173 43z m610 -1 c57 0 69 3
73 18 4 13 5 11 6 -5 1 -22 -2 -23 -79 -23 -77 0 -80 1 -79 23 1 16 2 18 6 5
4 -15 16 -18 73 -18z m147 -17 c-3 -10 -5 -2 -5 17 0 19 2 27 5 18 2 -10 2
-26 0 -35z m11753 -7 c0 -34 5 -56 13 -59 6 -3 -1 -6 -16 -6 -63 -2 -117 -55
-117 -116 0 -26 0 -26 -31 10 -22 25 -39 35 -60 35 l-29 0 0 95 0 95 120 0
120 0 0 -54z m-1140 34 c0 -5 -4 -10 -10 -10 -5 0 -10 5 -10 10 0 6 5 10 10
10 6 0 10 -4 10 -10z m-17340 -45 l0 -45 -50 0 -50 0 0 39 c0 42 6 46 73 50
26 1 27 -1 27 -44z m16300 -50 l0 -95 -165 0 -165 0 0 95 0 95 165 0 165 0 0
-95z m-1320 -7 l0 -92 -28 27 c-15 15 -36 27 -45 27 -13 0 -17 9 -17 40 0 32
4 40 18 40 10 0 29 11 42 25 13 14 25 25 27 25 2 0 3 -41 3 -92z m125 3 c0
-35 -6 -65 -14 -75 -20 -24 -24 -13 -6 20 19 37 19 71 0 108 -20 37 -19 44 3
23 12 -13 17 -34 17 -76z m-6235 60 c17 -32 12 -100 -11 -141 -24 -42 -83 -80
-124 -80 l-27 0 21 36 c26 44 27 44 -7 44 -16 0 -37 7 -48 15 -21 16 -54 20
-54 6 0 -4 -11 -6 -24 -4 -18 4 -25 13 -29 40 -7 43 2 95 16 90 5 -1 20 -23
33 -47 22 -41 24 -43 24 -17 0 16 10 38 25 52 22 23 32 25 109 25 74 0 87 -3
96 -19z m6551 4 c-57 -18 -108 -69 -126 -125 -7 -25 -14 -37 -14 -27 -1 24 26
87 47 111 21 23 90 56 117 55 11 0 0 -6 -24 -14z m-13861 -23 c0 -24 4 -27 33
-27 l32 0 3 -57 c2 -36 -1 -58 -8 -58 -5 0 -10 22 -10 51 0 47 -2 50 -22 47
-20 -3 -23 -10 -26 -50 -5 -81 -22 -53 -22 37 0 50 4 85 10 85 6 0 10 -12 10
-28z m1310 0 c0 -24 4 -27 33 -27 l32 0 3 -57 c2 -36 -1 -58 -8 -58 -5 0 -10
22 -10 51 0 47 -2 50 -22 47 -20 -3 -23 -10 -26 -50 -5 -81 -22 -53 -22 37 0
50 4 85 10 85 6 0 10 -12 10 -28z m7715 18 c4 6 59 10 145 10 86 0 141 -4 145
-10 5 -8 11 -7 21 1 12 10 14 -5 14 -100 0 -61 -3 -111 -7 -111 -5 0 -26 11
-48 25 -22 13 -46 25 -52 25 -7 0 -35 -14 -62 -30 -45 -28 -57 -31 -118 -28
l-68 3 -3 114 c-2 98 -1 112 12 102 10 -8 16 -9 21 -1z m-9485 -10 c0 -5 -11
-10 -25 -10 -24 0 -25 -2 -25 -70 0 -40 -4 -70 -10 -70 -6 0 -10 30 -10 70 0
68 -1 70 -25 70 -14 0 -25 5 -25 10 0 6 27 10 60 10 33 0 60 -4 60 -10z m5560
-45 l0 -55 -80 0 -80 0 0 55 0 55 80 0 80 0 0 -55z m7514 39 c9 -8 16 -22 16
-30 0 -8 7 -14 15 -14 18 0 35 -31 35 -65 0 -37 -78 -115 -115 -115 -33 0 -65
17 -65 34 0 7 -11 18 -25 24 -46 21 -44 113 3 120 16 2 22 10 22 27 0 13 6 26
13 28 27 12 86 6 101 -9z m896 -44 c0 -14 -7 -35 -16 -46 -15 -19 -16 -19 -8
1 4 11 8 31 8 45 0 14 -4 34 -8 45 -8 20 -7 20 8 1 9 -11 16 -32 16 -46z m760
43 c0 -10 3 -28 6 -40 4 -14 2 -23 -5 -23 -6 0 -11 16 -11 35 l0 35 -100 0
-100 0 0 -54 0 -55 48 -4 47 -3 -52 -2 -53 -2 0 65 0 65 110 0 c98 0 110 -2
110 -17z m-13744 -23 c8 0 14 -4 14 -10 0 -5 -7 -10 -15 -10 -11 0 -15 -11
-15 -35 0 -22 6 -38 15 -41 19 -8 20 -24 1 -24 -20 0 -29 16 -37 70 -4 27 -2
53 4 65 10 18 11 18 15 3 2 -10 10 -18 18 -18z m4654 15 c0 -8 -7 -15 -15 -15
-8 0 -15 7 -15 15 0 8 7 15 15 15 8 0 15 -7 15 -15z m5495 5 c4 -6 -47 -10
-144 -10 -94 0 -151 4 -151 10 0 6 55 10 144 10 86 0 147 -4 151 -10z m2455
-37 l45 -48 -47 45 -48 44 -47 -44 -48 -45 45 48 c24 26 47 47 50 47 3 0 26
-21 50 -47z m1000 -8 c0 -43 -1 -45 -30 -45 -29 0 -30 2 -30 45 0 43 1 45 30
45 29 0 30 -2 30 -45z m-660 5 c0 -10 -4 -21 -8 -24 -5 -3 -9 8 -9 24 0 16 4
27 9 24 4 -3 8 -14 8 -24z m403 18 c-38 -13 -77 -52 -91 -93 -6 -18 -11 -23
-11 -12 -2 48 66 118 114 116 14 -1 10 -4 -12 -11z m-14305 -48 c16 -48 16
-47 42 23 5 15 14 27 20 27 5 0 -1 -29 -14 -64 -34 -91 -44 -106 -66 -106 -26
0 -26 16 0 23 25 7 25 28 0 95 -14 36 -16 52 -8 50 6 -2 18 -24 26 -48z m192
30 c27 -43 -6 -104 -51 -98 -26 4 -29 2 -29 -24 0 -15 -4 -28 -10 -28 -6 0
-10 35 -10 84 l0 84 45 -2 c28 -1 50 -7 55 -16z m118 8 c7 -7 12 -22 12 -35 0
-20 -5 -23 -41 -23 -49 0 -50 -23 -1 -28 36 -4 34 -22 -3 -22 -49 0 -73 63
-38 102 18 21 53 24 71 6z m310 0 c7 -7 12 -22 12 -35 0 -20 -5 -23 -41 -23
-49 0 -50 -23 -1 -28 36 -4 34 -22 -3 -22 -49 0 -73 63 -38 102 18 21 53 24
71 6z m102 2 c0 -4 -9 -10 -20 -13 -16 -4 -20 -14 -20 -51 0 -25 -4 -46 -10
-46 -6 0 -10 26 -10 58 0 59 0 59 30 60 17 0 30 -3 30 -8z m98 -2 c7 -7 12
-22 12 -35 0 -20 -5 -23 -41 -23 -49 0 -50 -23 -1 -28 36 -4 34 -22 -3 -22
-49 0 -73 63 -38 102 18 21 53 24 71 6z m266 -4 c21 -20 20 -63 -1 -86 -34
-37 -93 -12 -93 39 0 53 59 82 94 47z m166 6 c0 -5 -11 -10 -25 -10 -34 0 -32
-16 5 -35 32 -16 38 -33 18 -53 -14 -14 -68 -16 -68 -2 0 6 14 10 30 10 17 0
30 4 30 10 0 5 -13 16 -30 25 -32 16 -38 33 -18 53 15 15 58 16 58 2z m118 -2
c7 -7 12 -22 12 -35 0 -20 -5 -23 -41 -23 -49 0 -50 -23 -1 -28 36 -4 34 -22
-3 -22 -49 0 -73 63 -38 102 18 21 53 24 71 6z m120 -50 l3 -56 -37 1 c-63 3
-75 59 -15 72 40 9 41 29 1 23 -16 -3 -30 -2 -30 2 0 14 16 21 45 18 29 -3 30
-5 33 -60z m102 52 c0 -4 -9 -10 -20 -13 -16 -4 -20 -14 -20 -51 0 -25 -4 -46
-10 -46 -6 0 -10 26 -10 58 0 59 0 59 30 60 17 0 30 -3 30 -8z m100 0 c0 -5
-13 -10 -29 -10 -33 0 -47 -25 -36 -61 6 -17 13 -20 36 -17 18 3 28 1 26 -6
-6 -19 -48 -19 -68 0 -39 35 -11 104 42 104 16 0 29 -4 29 -10z m3907 -92 c-2
-18 -4 -4 -4 32 0 36 2 50 4 33 2 -18 2 -48 0 -65z m5513 82 c0 -6 -56 -10
-149 -10 -89 0 -152 4 -156 10 -4 7 48 10 149 10 97 0 156 -4 156 -10z
m-12240 -50 c0 -55 -4 -57 -69 -44 -29 6 -31 9 -31 50 l0 44 50 0 50 0 0 -50z
m140 -11 l0 -60 -57 7 c-32 3 -61 8 -65 11 -5 2 -8 26 -8 54 l0 49 65 0 65 0
0 -61z m9211 32 c60 -60 21 -150 -60 -137 -50 8 -71 32 -71 82 0 34 5 47 26
63 37 29 70 26 105 -8z m6459 -27 c0 -29 -29 -46 -53 -33 -22 13 -22 47 0 71
15 17 17 17 35 2 10 -10 18 -27 18 -40z m2755 26 c10 -11 16 -20 13 -20 -3 0
-13 9 -23 20 -10 11 -16 20 -13 20 3 0 13 -9 23 -20z m-6330 0 c4 -6 -47 -10
-144 -10 -94 0 -151 4 -151 10 0 13 287 13 295 0z m3203 -6 c-15 -8 -34 -27
-42 -42 -11 -20 -15 -22 -16 -9 0 23 44 67 67 67 13 -1 11 -5 -9 -16z m3076
-31 c-4 -10 -14 -39 -23 -65 -9 -26 -22 -48 -29 -48 -14 0 -8 38 15 83 13 26
13 27 -17 27 -16 0 -30 5 -30 10 0 6 21 10 46 10 40 0 45 -2 38 -17z m-11855
-25 c-1 -17 -2 -19 -6 -5 -4 14 -16 17 -73 17 -57 0 -69 -3 -73 -17 -4 -14 -5
-12 -6 5 -1 21 2 22 79 22 77 0 80 -1 79 -22z m8801 7 c0 -8 -7 -15 -15 -15
-8 0 -15 7 -15 15 0 8 7 15 15 15 8 0 15 -7 15 -15z m1140 -60 c0 -37 -4 -65
-10 -65 -6 0 -10 28 -10 65 0 37 4 65 10 65 6 0 10 -28 10 -65z m77 18 l28
-48 3 48 c5 71 22 57 22 -18 0 -81 -14 -84 -57 -12 l-32 52 -1 -52 c0 -29 -4
-53 -10 -53 -6 0 -10 28 -10 65 0 81 16 85 57 18z m420 31 c3 -9 2 -24 -4 -33
-7 -12 -6 -19 6 -28 12 -9 14 -16 5 -30 -11 -18 -74 -32 -74 -16 0 5 12 9 28
8 36 0 39 36 2 45 -25 6 -25 6 -2 12 14 4 22 14 22 28 0 19 -4 21 -26 16 -17
-5 -23 -3 -19 4 10 16 55 12 62 -6z m102 2 c18 -21 10 -97 -11 -110 -29 -18
-53 4 -56 53 -2 23 2 49 9 57 15 18 43 18 58 0z m161 -51 c0 -37 -4 -65 -10
-65 -5 0 -10 22 -10 50 0 40 -3 48 -15 44 -20 -8 -19 6 3 22 29 22 32 17 32
-51z m109 51 c7 -8 11 -34 9 -57 -3 -49 -27 -71 -55 -53 -22 13 -30 89 -12
110 15 18 43 18 58 0z m171 -1 c16 -19 5 -50 -25 -69 -34 -22 -31 -34 8 -39
28 -3 26 -4 -10 -5 -52 -2 -56 12 -13 53 17 16 30 35 30 42 0 20 -28 27 -45
13 -15 -12 -22 0 -8 13 12 12 50 7 63 -8z m99 1 c18 -21 10 -97 -11 -110 -29
-18 -53 4 -56 53 -2 23 2 49 9 57 15 18 43 18 58 0z m101 -1 c16 -19 5 -50
-25 -69 -34 -22 -31 -34 8 -39 28 -3 26 -4 -10 -5 -52 -2 -56 12 -13 53 17 16
30 35 30 42 0 20 -28 27 -45 13 -15 -12 -22 0 -8 13 12 12 50 7 63 -8z m99 1
c18 -21 10 -97 -11 -110 -29 -18 -53 4 -56 53 -2 23 2 49 9 57 15 18 43 18 58
0z m658 -33 c-3 -10 -5 -4 -5 12 0 17 2 24 5 18 2 -7 2 -21 0 -30z m-1324 -30
c-7 -2 -21 -2 -30 0 -10 3 -4 5 12 5 17 0 24 -2 18 -5z m270 0 c-7 -2 -21 -2
-30 0 -10 3 -4 5 12 5 17 0 24 -2 18 -5z m852 -43 c10 -11 16 -20 13 -20 -3 0
-13 9 -23 20 -10 11 -16 20 -13 20 3 0 13 -9 23 -20z m185 17 c0 -2 -10 -12
-22 -23 l-23 -19 19 23 c18 21 26 27 26 19z m-87 -54 c-7 -2 -21 -2 -30 0 -10
3 -4 5 12 5 17 0 24 -2 18 -5z"/>
<path d="M157 10663 c-4 -3 -7 -40 -7 -80 l0 -74 78 3 77 3 3 78 3 77 -74 0
c-40 0 -77 -3 -80 -7z m59 -24 c4 -8 9 -8 17 0 14 14 47 14 47 1 0 -5 -9 -10
-20 -10 -27 0 -25 -28 3 -33 20 -3 21 -4 3 -12 -14 -6 -23 -3 -32 10 -12 17
-15 17 -39 1 l-25 -16 0 35 c0 28 4 35 19 35 11 0 23 -5 27 -11z"/>
<path d="M18120 10640 c0 -5 16 -10 35 -10 33 0 35 -2 35 -35 0 -19 5 -35 10
-35 6 0 10 20 10 45 l0 45 -45 0 c-25 0 -45 -4 -45 -10z"/>
<path d="M18090 10575 l0 -45 45 0 45 0 0 45 0 45 -45 0 -45 0 0 -45z"/>
<path d="M1084 10576 c-10 -26 0 -51 21 -51 16 0 20 7 20 30 0 33 -30 49 -41
21z"/>
<path d="M3154 10576 c-10 -26 0 -51 21 -51 16 0 20 7 20 30 0 33 -30 49 -41
21z"/>
<path d="M6314 10576 c-10 -26 0 -51 21 -51 16 0 20 7 20 30 0 33 -30 49 -41
21z"/>
<path d="M3540 10605 c0 -22 4 -26 23 -23 14 2 22 10 22 23 0 13 -8 21 -22 23
-19 3 -23 -1 -23 -23z"/>
<path d="M4400 10605 c0 -22 4 -26 23 -23 14 2 22 10 22 23 0 13 -8 21 -22 23
-19 3 -23 -1 -23 -23z"/>
<path d="M730 10575 c-11 -13 -9 -15 15 -15 16 0 25 5 23 12 -7 19 -24 20 -38
3z"/>
<path d="M1640 10575 c-11 -13 -9 -15 15 -15 16 0 25 5 23 12 -7 19 -24 20
-38 3z"/>
<path d="M2170 10550 c-11 -7 -12 -12 -3 -21 13 -13 33 -4 33 17 0 16 -9 18
-30 4z"/>
<path d="M2394 10576 c-10 -26 0 -51 21 -51 16 0 20 7 20 30 0 33 -30 49 -41
21z"/>
<path d="M2500 10550 c-11 -7 -12 -12 -3 -21 13 -13 33 -4 33 17 0 16 -9 18
-30 4z"/>
<path d="M2650 10575 c-11 -13 -9 -15 15 -15 16 0 25 5 23 12 -7 19 -24 20
-38 3z"/>
<path d="M3047 10584 c-13 -13 -7 -55 9 -61 24 -9 51 23 38 45 -12 19 -36 27
-47 16z"/>
<path d="M3260 10575 c-11 -13 -9 -15 15 -15 16 0 25 5 23 12 -7 19 -24 20
-38 3z"/>
<path d="M3650 10575 c-11 -13 -9 -15 15 -15 16 0 25 5 23 12 -7 19 -24 20
-38 3z"/>
<path d="M3800 10550 c-11 -7 -12 -12 -3 -21 13 -13 33 -4 33 17 0 16 -9 18
-30 4z"/>
<path d="M4037 10584 c-13 -13 -7 -55 9 -61 24 -9 51 23 38 45 -12 19 -36 27
-47 16z"/>
<path d="M4987 10584 c-13 -13 -7 -55 9 -61 24 -9 51 23 38 45 -12 19 -36 27
-47 16z"/>
<path d="M5097 10584 c-13 -13 -7 -55 9 -61 24 -9 51 23 38 45 -12 19 -36 27
-47 16z"/>
<path d="M6427 10584 c-13 -13 -7 -55 9 -61 24 -9 51 23 38 45 -12 19 -36 27
-47 16z"/>
<path d="M6990 10575 c-11 -13 -9 -15 15 -15 16 0 25 5 23 12 -7 19 -24 20
-38 3z"/>
<path d="M7127 10583 c-13 -12 -7 -54 9 -60 23 -8 47 20 39 46 -6 20 -34 28
-48 14z"/>
<path d="M17690 10155 c0 -10 10 -15 30 -15 20 0 30 5 30 15 0 10 -10 15 -30
15 -20 0 -30 -5 -30 -15z"/>
<path d="M17690 10105 c0 -10 10 -15 30 -15 20 0 30 5 30 15 0 10 -10 15 -30
15 -20 0 -30 -5 -30 -15z"/>
<path d="M18935 10205 c-31 -30 -31 -37 -1 -72 21 -24 27 -26 52 -18 18 6 33
21 39 39 8 25 6 31 -18 52 -35 30 -42 30 -72 -1z"/>
<path d="M16180 10170 c0 -27 3 -31 23 -28 16 2 22 10 22 28 0 18 -6 26 -22
28 -20 3 -23 -1 -23 -28z"/>
<path d="M7510 9975 l0 -75 75 0 75 0 0 75 0 75 -75 0 -75 0 0 -75z m140 0 l0
-65 -65 0 -65 0 0 65 0 65 65 0 65 0 0 -65z"/>
<path d="M8255 10013 l35 -37 -38 -41 -37 -40 40 37 41 38 39 -38 40 -37 -37
40 -38 39 38 41 37 40 -40 -37 -41 -38 -37 35 -37 35 35 -37z"/>
<path d="M678 10032 c-25 -5 -22 -20 5 -25 l22 -4 -22 -2 c-13 0 -23 -8 -23
-16 0 -10 6 -12 18 -8 22 9 47 33 33 33 -5 0 -11 6 -13 13 -2 7 -11 11 -20 9z"/>
<path d="M2010 10011 c0 -24 -3 -28 -20 -24 -26 7 -50 -13 -50 -42 0 -29 20
-46 54 -43 25 2 26 4 26 70 0 37 -2 68 -5 68 -3 0 -5 -13 -5 -29z m-5 -66 c0
-23 -5 -30 -19 -30 -28 0 -43 29 -26 50 21 25 45 14 45 -20z"/>
<path d="M730 10005 c0 -14 5 -25 10 -25 6 0 10 11 10 25 0 14 -4 25 -10 25
-5 0 -10 -11 -10 -25z"/>
<path d="M943 9965 c0 -38 2 -53 4 -32 2 20 2 52 0 70 -2 17 -4 1 -4 -38z"/>
<path d="M1423 10023 c3 -5 12 -34 21 -65 9 -32 20 -58 25 -58 4 0 15 24 23
53 l14 52 14 -53 c8 -29 18 -51 24 -49 11 4 46 127 36 127 -4 0 -14 -24 -22
-52 l-15 -53 -13 48 c-7 26 -16 50 -21 52 -4 3 -14 -14 -20 -37 -18 -63 -24
-64 -38 -8 -7 27 -17 50 -23 50 -5 0 -7 -3 -5 -7z"/>
<path d="M991 9941 l2 -46 6 40 c7 46 37 62 45 23 3 -13 7 -32 9 -43 3 -11 5
-3 6 18 1 24 7 40 16 44 21 7 27 0 35 -44 l8 -38 1 35 c1 51 -7 58 -71 57
l-58 -1 1 -45z"/>
<path d="M1168 9983 c30 -6 28 -19 -4 -27 -19 -5 -25 -12 -22 -29 2 -17 10
-22 36 -24 29 -1 32 1 32 27 0 45 -10 60 -39 59 -23 -2 -24 -2 -3 -6z m22 -47
c0 -8 -5 -18 -11 -22 -14 -8 -33 11 -25 25 10 16 36 13 36 -3z"/>
<path d="M1242 9978 c-30 -30 -2 -85 39 -75 15 4 19 1 17 -11 -2 -9 -17 -20
-33 -23 -28 -6 -28 -7 -4 -8 37 -2 49 17 49 74 0 48 -1 51 -28 53 -15 1 -33
-3 -40 -10z m53 -33 c0 -23 -5 -30 -19 -30 -28 0 -43 29 -26 50 21 25 45 14
45 -20z"/>
<path d="M1352 9978 c-15 -15 -16 -50 0 -66 14 -14 44 -16 52 -3 3 4 -5 6 -18
4 -15 -3 -25 1 -29 11 -5 12 0 16 24 16 26 0 30 3 27 23 -3 25 -36 35 -56 15z
m46 -15 c2 -8 -6 -13 -22 -13 -19 0 -24 4 -19 15 6 18 34 16 41 -2z"/>
<path d="M1618 9983 c30 -6 28 -19 -4 -27 -19 -5 -25 -12 -22 -29 2 -17 10
-22 36 -24 29 -1 32 1 32 27 0 45 -10 60 -39 59 -23 -2 -24 -2 -3 -6z m22 -47
c0 -8 -5 -18 -11 -22 -14 -8 -33 11 -25 25 10 16 36 13 36 -3z"/>
<path d="M1680 9944 c0 -24 5 -44 10 -44 6 0 10 16 10 35 0 21 6 37 17 43 13
8 11 10 -10 10 -25 0 -27 -4 -27 -44z"/>
<path d="M1751 9920 c1 -36 4 -53 6 -39 3 21 9 26 24 22 25 -7 49 14 49 42 0
29 -20 46 -54 43 -25 -2 -26 -4 -25 -68z m64 39 c8 -26 -16 -54 -39 -46 -16 6
-22 48 -9 60 14 14 42 6 48 -14z"/>
<path d="M1862 9978 c-15 -15 -16 -50 0 -66 14 -14 44 -16 52 -3 3 4 -5 6 -18
4 -15 -3 -25 1 -29 11 -5 12 0 16 24 16 26 0 30 3 27 23 -3 25 -36 35 -56 15z
m46 -15 c2 -8 -6 -13 -22 -13 -19 0 -24 4 -19 15 6 18 34 16 41 -2z"/>
<path d="M6858 9973 c23 -2 59 -2 80 0 20 2 1 4 -43 4 -44 0 -61 -2 -37 -4z"/>
<path d="M220 10125 c0 -20 4 -26 18 -23 9 2 17 12 17 23 0 11 -8 21 -17 23
-14 3 -18 -3 -18 -23z"/>
<path d="M333 10134 c-8 -21 13 -42 28 -27 13 13 5 43 -11 43 -6 0 -13 -7 -17
-16z"/>
<path d="M448 10143 c7 -3 16 -2 19 1 4 3 -2 6 -13 5 -11 0 -14 -3 -6 -6z"/>
<path d="M15170 10120 c-11 -7 -12 -12 -3 -21 13 -13 33 -4 33 17 0 16 -9 18
-30 4z"/>
<path d="M15670 10120 c-11 -7 -12 -12 -3 -21 13 -13 33 -4 33 17 0 16 -9 18
-30 4z"/>
<path d="M15960 10145 c-11 -13 -9 -15 15 -15 16 0 25 5 23 12 -7 19 -24 20
-38 3z"/>
<path d="M16347 10154 c-13 -13 -7 -55 9 -61 24 -9 51 23 38 45 -12 19 -36 27
-47 16z"/>
<path d="M16490 10145 c-11 -13 -9 -15 15 -15 16 0 25 5 23 12 -7 19 -24 20
-38 3z"/>
<path d="M10147 9733 c-13 -12 -7 -54 9 -60 23 -8 47 20 39 46 -6 20 -34 28
-48 14z"/>
<path d="M17204 9726 c-10 -26 0 -51 21 -51 16 0 20 7 20 30 0 33 -30 49 -41
21z"/>
<path d="M15400 9750 c0 -23 5 -30 19 -30 10 0 21 7 25 15 8 23 -4 45 -25 45
-14 0 -19 -7 -19 -30z"/>
<path d="M9590 9725 c-11 -13 -9 -15 15 -15 16 0 25 5 23 12 -7 19 -24 20 -38
3z"/>
<path d="M9964 9726 c-10 -26 0 -51 21 -51 16 0 20 7 20 30 0 33 -30 49 -41
21z"/>
<path d="M10310 9725 c-11 -13 -9 -15 15 -15 16 0 25 5 23 12 -7 19 -24 20
-38 3z"/>
<path d="M10400 9700 c-11 -7 -12 -12 -3 -21 13 -13 33 -4 33 17 0 16 -9 18
-30 4z"/>
<path d="M10707 9734 c-13 -13 -7 -55 9 -61 24 -9 51 23 38 45 -12 19 -36 27
-47 16z"/>
<path d="M10987 9734 c-13 -13 -7 -55 9 -61 24 -9 51 23 38 45 -12 19 -36 27
-47 16z"/>
<path d="M11390 9700 c-11 -7 -12 -12 -3 -21 13 -13 33 -4 33 17 0 16 -9 18
-30 4z"/>
<path d="M11524 9726 c-10 -26 0 -51 21 -51 16 0 20 7 20 30 0 33 -30 49 -41
21z"/>
<path d="M11637 9734 c-13 -13 -7 -55 9 -61 24 -9 51 23 38 45 -12 19 -36 27
-47 16z"/>
<path d="M11787 9733 c-13 -12 -7 -54 9 -60 23 -8 47 20 39 46 -6 20 -34 28
-48 14z"/>
<path d="M12800 9700 c-11 -7 -12 -12 -3 -21 13 -13 33 -4 33 17 0 16 -9 18
-30 4z"/>
<path d="M13337 9733 c-13 -12 -7 -54 9 -60 23 -8 47 20 39 46 -6 20 -34 28
-48 14z"/>
<path d="M14390 9700 c-11 -7 -12 -12 -3 -21 13 -13 33 -4 33 17 0 16 -9 18
-30 4z"/>
<path d="M14890 9700 c-11 -7 -12 -12 -3 -21 13 -13 33 -4 33 17 0 16 -9 18
-30 4z"/>
<path d="M15180 9725 c-11 -13 -9 -15 15 -15 16 0 25 5 23 12 -7 19 -24 20
-38 3z"/>
<path d="M15567 9733 c-13 -13 -7 -54 9 -60 24 -9 46 24 33 48 -10 19 -30 25
-42 12z"/>
<path d="M15710 9725 c-11 -13 -9 -15 15 -15 16 0 25 5 23 12 -7 19 -24 20
-38 3z"/>
<path d="M15984 9726 c-10 -26 0 -51 21 -51 16 0 20 7 20 30 0 33 -30 49 -41
21z"/>
<path d="M17050 9700 c-11 -7 -12 -12 -3 -21 13 -13 33 -4 33 17 0 16 -9 18
-30 4z"/>
<path d="M17750 9700 c-11 -7 -12 -12 -3 -21 13 -13 33 -4 33 17 0 16 -9 18
-30 4z"/>
<path d="M17907 9733 c-13 -12 -7 -54 9 -60 23 -8 47 20 39 46 -6 20 -34 28
-48 14z"/>
<path d="M18154 9726 c-10 -26 0 -51 21 -51 16 0 20 7 20 30 0 33 -30 49 -41
21z"/>
<path d="M18307 9733 c-13 -12 -7 -54 9 -60 23 -8 47 20 39 46 -6 20 -34 28
-48 14z"/>
<path d="M176 9651 c-4 -7 -5 -15 -2 -18 9 -9 19 4 14 18 -4 11 -6 11 -12 0z"/>
<path d="M175 9530 c-11 -17 18 -42 39 -34 9 4 16 14 14 23 -4 19 -43 27 -53
11z"/>
<path d="M147 9383 c-4 -3 -7 -15 -7 -25 0 -13 7 -18 25 -18 26 0 29 7 19 34
-6 16 -26 21 -37 9z"/>
<path d="M10028 8892 c-25 -5 -22 -20 5 -25 l22 -4 -22 -2 c-13 0 -23 -8 -23
-16 0 -10 6 -12 18 -8 22 9 47 33 33 33 -5 0 -11 6 -13 13 -2 7 -11 11 -20 9z"/>
<path d="M10080 8865 c0 -14 5 -25 10 -25 6 0 10 11 10 25 0 14 -4 25 -10 25
-5 0 -10 -11 -10 -25z"/>
<path d="M9870 5705 l0 -2885 3650 0 3650 0 0 2885 0 2885 -3650 0 -3650 0 0
-2885z m1772 2670 c11 -5 13 -142 12 -833 -3 -1001 -9 -1271 -32 -1279 -9 -4
-119 1 -246 10 -127 9 -312 22 -411 27 -99 6 -195 13 -212 16 l-33 5 0 397 c0
218 -3 654 -7 968 -3 313 -3 586 1 606 6 34 9 36 54 41 26 3 146 11 267 17
121 6 281 15 355 19 181 11 236 12 252 6z m0 -2880 c11 -5 13 -142 12 -833 -3
-1001 -9 -1271 -32 -1279 -9 -4 -119 1 -246 10 -127 9 -312 22 -411 27 -99 6
-195 13 -212 16 l-33 5 0 397 c0 218 -3 654 -7 968 -3 313 -3 586 1 606 6 34
9 36 54 41 26 3 146 11 267 17 121 6 281 15 355 19 181 11 236 12 252 6z
m2430 0 c11 -5 13 -142 12 -833 -3 -1001 -9 -1271 -32 -1279 -9 -4 -119 1
-246 10 -127 9 -312 22 -411 27 -99 6 -195 13 -212 16 l-33 5 0 397 c0 218 -3
654 -7 968 -3 313 -3 586 1 606 6 34 9 36 54 41 26 3 146 11 267 17 121 6 281
15 355 19 181 11 236 12 252 6z"/>
<path d="M176 8551 c-4 -7 -5 -15 -2 -18 9 -9 19 4 14 18 -4 11 -6 11 -12 0z"/>
<path d="M9180 7190 c0 -17 5 -21 28 -18 16 2 27 9 27 18 0 9 -11 16 -27 18
-23 3 -28 -1 -28 -18z"/>
<path d="M9440 7186 c0 -8 -3 -21 -6 -30 -4 -11 0 -16 14 -16 15 0 18 5 14 25
-5 28 -22 44 -22 21z"/>
<path d="M8953 5953 c-20 -8 -17 -99 3 -107 9 -4 23 -1 30 5 17 14 18 81 2 97
-13 13 -16 13 -35 5z m14 -60 c-3 -10 -5 -4 -5 12 0 17 2 24 5 18 2 -7 2 -21
0 -30z"/>
<path d="M18604 2456 c-10 -26 4 -48 28 -44 17 2 23 10 23 28 0 18 -6 26 -23
28 -13 2 -25 -3 -28 -12z"/>
<path d="M176 2351 c-4 -7 -5 -15 -2 -18 9 -9 19 4 14 18 -4 11 -6 11 -12 0z"/>
<path d="M173 2114 c-5 -14 11 -34 27 -34 3 0 11 4 19 9 19 12 6 41 -19 41
-11 0 -23 -7 -27 -16z"/>
<path d="M202 1946 c1 -10 8 -17 13 -17 15 1 12 24 -3 29 -9 3 -13 -2 -10 -12z"/>
<path d="M18245 1030 c-3 -5 3 -10 14 -10 12 0 21 5 21 10 0 6 -6 10 -14 10
-8 0 -18 -4 -21 -10z"/>
<path d="M18584 1026 c-9 -24 4 -48 23 -44 12 2 18 12 18 28 0 29 -32 41 -41
16z"/>
<path d="M18674 1025 c-8 -21 3 -45 20 -45 16 0 31 34 21 50 -9 15 -35 12 -41
-5z"/>
<path d="M18896 743 c-9 -24 26 -68 54 -68 28 0 63 44 54 68 -4 13 -18 17 -54
17 -36 0 -50 -4 -54 -17z m64 -47 c-7 -7 -13 -7 -20 0 -6 6 -3 10 10 10 13 0
16 -4 10 -10z"/>
<path d="M134 797 c-3 -8 -4 -36 -2 -63 l3 -49 60 0 60 0 0 60 0 60 -58 3
c-42 2 -59 -1 -63 -11z"/>
<path d="M440 765 c0 -22 4 -26 23 -23 14 2 22 10 22 23 0 13 -8 21 -22 23
-19 3 -23 -1 -23 -23z"/>
<path d="M14103 774 c-8 -21 13 -42 28 -27 13 13 5 43 -11 43 -6 0 -13 -7 -17
-16z"/>
<path d="M14100 705 c0 -22 4 -26 23 -23 14 2 22 10 22 23 0 13 -8 21 -22 23
-19 3 -23 -1 -23 -23z"/>
<path d="M14720 765 c0 -22 4 -26 23 -23 14 2 22 10 22 23 0 13 -8 21 -22 23
-19 3 -23 -1 -23 -23z"/>
<path d="M15553 774 c-8 -21 13 -42 28 -27 13 13 5 43 -11 43 -6 0 -13 -7 -17
-16z"/>
<path d="M15550 705 c0 -22 4 -26 23 -23 14 2 22 10 22 23 0 13 -8 21 -22 23
-19 3 -23 -1 -23 -23z"/>
<path d="M15836 735 c-16 -24 -16 -25 4 -25 15 0 20 7 20 25 0 14 -2 25 -4 25
-2 0 -11 -11 -20 -25z"/>
<path d="M16680 760 c0 -27 3 -31 23 -28 16 2 22 10 22 28 0 18 -6 26 -22 28
-20 3 -23 -1 -23 -28z"/>
<path d="M16067 743 c-13 -12 -7 -54 9 -60 23 -8 47 20 39 46 -6 20 -34 28
-48 14z"/>
<path d="M16170 710 c-11 -7 -12 -12 -3 -21 13 -13 33 -4 33 17 0 16 -9 18
-30 4z"/>
<path d="M16340 735 c-11 -13 -9 -15 15 -15 16 0 25 5 23 12 -7 19 -24 20 -38
3z"/>
<path d="M17037 744 c-13 -13 -7 -55 9 -61 24 -9 51 23 38 45 -12 19 -36 27
-47 16z"/>
<path d="M17790 710 c-11 -7 -12 -12 -3 -21 13 -13 33 -4 33 17 0 16 -9 18
-30 4z"/>
<path d="M18200 735 c-11 -13 -9 -15 15 -15 16 0 25 5 23 12 -7 19 -24 20 -38
3z"/>
<path d="M17484 477 c-11 -29 0 -92 16 -92 11 0 15 12 15 49 0 49 -19 74 -31
43z"/>
<path d="M17584 476 c-8 -22 3 -49 19 -43 6 2 12 14 12 27 0 27 -22 39 -31 16z"/>
<path d="M17823 474 c-8 -21 13 -42 28 -27 13 13 5 43 -11 43 -6 0 -13 -7 -17
-16z"/>
<path d="M17823 414 c-8 -21 13 -42 28 -27 13 13 5 43 -11 43 -6 0 -13 -7 -17
-16z"/>
<path d="M17970 460 c0 -34 23 -41 38 -12 13 23 4 42 -19 42 -14 0 -19 -7 -19
-30z"/>
<path d="M10330 420 l0 -30 65 0 65 0 0 30 0 30 -65 0 -65 0 0 -30z"/>
<path d="M10330 280 c0 -27 3 -30 30 -30 27 0 30 3 30 30 0 27 -3 30 -30 30
-27 0 -30 -3 -30 -30z"/>
<path d="M11660 383 c-70 -14 -58 -47 14 -38 36 5 74 1 120 -10 69 -17 82 -16
73 8 -10 26 -147 53 -207 40z"/>
<path d="M11638 314 c-5 -4 -8 -13 -8 -20 0 -8 17 -10 63 -7 44 4 73 1 101
-11 49 -21 71 -6 30 21 -29 19 -172 32 -186 17z"/>
<path d="M11665 261 c-47 -10 -30 -26 24 -23 28 2 63 -3 86 -12 40 -17 63 -13
45 9 -11 13 -87 36 -112 34 -7 -1 -26 -4 -43 -8z"/>
<path d="M13630 300 l0 -120 120 0 120 0 0 120 0 120 -120 0 -120 0 0 -120z
m91 80 c10 -6 19 -18 20 -28 0 -13 2 -11 9 5 10 24 50 39 75 29 25 -9 18 -29
-9 -22 -30 7 -50 -15 -41 -45 6 -17 12 -20 37 -15 21 4 28 2 26 -7 -3 -6 -19
-13 -36 -15 -24 -3 -34 2 -48 23 -12 18 -20 23 -27 16 -6 -6 -19 -11 -29 -11
-10 0 -18 -7 -18 -15 0 -8 -7 -15 -15 -15 -12 0 -15 13 -15 55 0 52 1 55 26
55 14 0 34 -5 45 -10z m19 -160 c0 -5 -20 -10 -45 -10 -25 0 -45 5 -45 10 0 6
20 10 45 10 25 0 45 -4 45 -10z"/>
<path d="M13680 344 c0 -9 5 -14 12 -12 18 6 21 28 4 28 -9 0 -16 -7 -16 -16z"/>
<path d="M1010 380 c-11 -11 -20 -29 -20 -40 0 -27 43 -70 70 -70 29 0 60 35
60 68 0 57 -69 83 -110 42z"/>
<path d="M6185 355 c-50 -49 -15 -135 55 -135 41 0 80 39 80 80 0 41 -39 80
-80 80 -19 0 -40 -9 -55 -25z"/>
<path d="M18663 363 c20 -2 54 -2 75 0 20 2 3 4 -38 4 -41 0 -58 -2 -37 -4z"/>
<path d="M18663 323 c20 -2 54 -2 75 0 20 2 3 4 -38 4 -41 0 -58 -2 -37 -4z"/>
<path d="M18653 283 c15 -2 37 -2 50 0 12 2 0 4 -28 4 -27 0 -38 -2 -22 -4z"/>
<path d="M16320 305 l0 -85 155 0 155 0 0 85 0 85 -155 0 -155 0 0 -85z m63
-2 c-7 -2 -19 -2 -25 0 -7 3 -2 5 12 5 14 0 19 -2 13 -5z m210 0 c-7 -2 -19
-2 -25 0 -7 3 -2 5 12 5 14 0 19 -2 13 -5z m-210 -50 c-7 -2 -19 -2 -25 0 -7
3 -2 5 12 5 14 0 19 -2 13 -5z m124 0 c-20 -2 -52 -2 -70 0 -17 2 0 4 38 4 39
0 53 -2 32 -4z m86 0 c-7 -2 -19 -2 -25 0 -7 3 -2 5 12 5 14 0 19 -2 13 -5z"/>
<path d="M15285 350 c-10 -11 -24 -20 -32 -20 -8 0 -13 -12 -13 -30 0 -16 5
-30 12 -30 6 0 22 -10 35 -22 l23 -21 0 71 c0 40 -2 72 -3 72 -2 0 -12 -9 -22
-20z"/>
<path d="M6850 305 l0 -45 70 0 70 0 0 45 0 45 -70 0 -70 0 0 -45z"/>
<path d="M14445 331 c3 -6 -2 -14 -12 -18 -16 -6 -15 -8 7 -14 22 -6 21 -7
-11 -8 -56 -2 -90 -56 -57 -89 17 -17 28 -15 28 7 0 26 19 39 65 43 39 3 40 4
40 43 0 38 -2 40 -34 43 -22 2 -31 0 -26 -7z"/>
<path d="M1584 286 c-12 -32 0 -61 28 -64 29 -4 44 22 33 58 -7 24 -53 28 -61
6z"/>
<path d="M1717 294 c-15 -15 -6 -24 24 -24 20 0 29 4 27 13 -5 14 -40 21 -51
11z"/>
<path d="M2027 294 c-15 -15 -6 -24 24 -24 20 0 29 4 27 13 -5 14 -40 21 -51
11z"/>
<path d="M2227 294 c-15 -15 -6 -24 24 -24 20 0 29 4 27 13 -5 14 -40 21 -51
11z"/>
<path d="M2484 286 c-3 -8 -4 -25 -2 -38 2 -18 9 -23 33 -23 28 0 30 3 30 35
0 31 -3 35 -28 38 -17 2 -29 -2 -33 -12z"/>
<path d="M2777 294 c-15 -15 -6 -24 24 -24 20 0 29 4 27 13 -5 14 -40 21 -51
11z"/>
<path d="M2897 253 c-16 -15 -6 -34 15 -31 29 4 38 38 10 38 -10 0 -22 -3 -25
-7z"/>
<path d="M16101 256 c-8 -10 -9 -16 -1 -21 5 -3 10 2 11 12 0 16 1 16 8 -1 5
-12 10 -15 14 -9 4 6 1 16 -7 22 -10 8 -16 8 -25 -3z"/>
<path d="M17494 197 c-11 -29 0 -92 16 -92 11 0 15 12 15 49 0 49 -19 74 -31
43z"/>
<path d="M17764 197 c-11 -29 0 -92 16 -92 11 0 15 12 15 49 0 49 -19 74 -31
43z"/>
<path d="M18034 197 c-11 -29 0 -92 16 -92 11 0 15 12 15 49 0 49 -19 74 -31
43z"/>
<path d="M18234 197 c-11 -29 0 -92 16 -92 11 0 15 12 15 49 0 49 -19 74 -31
43z"/>
</g>
</svg>
